<svg version="1.1" xmlns="http://www.w3.org/2000/svg" xmlns:xlink="http://www.w3.org/1999/xlink" width="1157" height="440"><defs><clipPath id="fxdCEuKlvLDe"><path fill="none" stroke="none" d=" M 0 0 L 1157 0 L 1157 440 L 0 440 L 0 0 Z"/></clipPath></defs><g transform="scale(1,1)" clip-path="url(#fxdCEuKlvLDe)"><g><rect fill="rgb(255,255,255)" stroke="none" x="0" y="0" width="1157" height="440" fill-opacity="1"/><path fill="none" stroke="rgb(192,192,192)" paint-order="fill stroke markers" d=" M 6.5 0.5 L 6.5 440.5 M 6.5 0.5 L 6.5 440.5 M 120.5 0.5 L 120.5 440.5 M 177.5 0.5 L 177.5 440.5 M 234.5 0.5 L 234.5 440.5 M 291.5 0.5 L 291.5 440.5 M 348.5 0.5 L 348.5 440.5 M 405.5 0.5 L 405.5 440.5 M 462.5 0.5 L 462.5 440.5 M 519.5 0.5 L 519.5 440.5 M 576.5 0.5 L 576.5 440.5 M 632.5 0.5 L 632.5 440.5 M 689.5 0.5 L 689.5 440.5 M 746.5 0.5 L 746.5 440.5 M 803.5 0.5 L 803.5 440.5 M 860.5 0.5 L 860.5 440.5 M 917.5 0.5 L 917.5 440.5 M 974.5 0.5 L 974.5 440.5 M 1031.5 0.5 L 1031.5 440.5 M 1088.5 0.5 L 1088.5 440.5 M 1145.5 0.5 L 1145.5 440.5" stroke-opacity="1" stroke-linecap="round" stroke-linejoin="round" stroke-miterlimit="10"/><path fill="none" stroke="rgb(192,192,192)" paint-order="fill stroke markers" d=" M 18.5 0.5 L 18.5 440.5 M 29.5 0.5 L 29.5 440.5 M 40.5 0.5 L 40.5 440.5 M 52.5 0.5 L 52.5 440.5 M 75.5 0.5 L 75.5 440.5 M 86.5 0.5 L 86.5 440.5 M 97.5 0.5 L 97.5 440.5 M 109.5 0.5 L 109.5 440.5 M 131.5 0.5 L 131.5 440.5 M 143.5 0.5 L 143.5 440.5 M 154.5 0.5 L 154.5 440.5 M 166.5 0.5 L 166.5 440.5 M 188.5 0.5 L 188.5 440.5 M 200.5 0.5 L 200.5 440.5 M 211.5 0.5 L 211.5 440.5 M 223.5 0.5 L 223.5 440.5 M 245.5 0.5 L 245.5 440.5 M 257.5 0.5 L 257.5 440.5 M 268.5 0.5 L 268.5 440.5 M 279.5 0.5 L 279.5 440.5 M 302.5 0.5 L 302.5 440.5 M 314.5 0.5 L 314.5 440.5 M 325.5 0.5 L 325.5 440.5 M 336.5 0.5 L 336.5 440.5 M 359.5 0.5 L 359.5 440.5 M 371.5 0.5 L 371.5 440.5 M 382.5 0.5 L 382.5 440.5 M 393.5 0.5 L 393.5 440.5 M 416.5 0.5 L 416.5 440.5 M 428.5 0.5 L 428.5 440.5 M 439.5 0.5 L 439.5 440.5 M 450.5 0.5 L 450.5 440.5 M 473.5 0.5 L 473.5 440.5 M 484.5 0.5 L 484.5 440.5 M 496.5 0.5 L 496.5 440.5 M 507.5 0.5 L 507.5 440.5 M 530.5 0.5 L 530.5 440.5 M 541.5 0.5 L 541.5 440.5 M 553.5 0.5 L 553.5 440.5 M 564.5 0.5 L 564.5 440.5 M 587.5 0.5 L 587.5 440.5 M 598.5 0.5 L 598.5 440.5 M 610.5 0.5 L 610.5 440.5 M 621.5 0.5 L 621.5 440.5 M 644.5 0.5 L 644.5 440.5 M 655.5 0.5 L 655.5 440.5 M 667.5 0.5 L 667.5 440.5 M 678.5 0.5 L 678.5 440.5 M 701.5 0.5 L 701.5 440.5 M 712.5 0.5 L 712.5 440.5 M 724.5 0.5 L 724.5 440.5 M 735.5 0.5 L 735.5 440.5 M 758.5 0.5 L 758.5 440.5 M 769.5 0.5 L 769.5 440.5 M 781.5 0.5 L 781.5 440.5 M 792.5 0.5 L 792.5 440.5 M 815.5 0.5 L 815.5 440.5 M 826.5 0.5 L 826.5 440.5 M 837.5 0.5 L 837.5 440.5 M 849.5 0.5 L 849.5 440.5 M 872.5 0.5 L 872.5 440.5 M 883.5 0.5 L 883.5 440.5 M 894.5 0.5 L 894.5 440.5 M 906.5 0.5 L 906.5 440.5 M 929.5 0.5 L 929.5 440.5 M 940.5 0.5 L 940.5 440.5 M 951.5 0.5 L 951.5 440.5 M 963.5 0.5 L 963.5 440.5 M 985.5 0.5 L 985.5 440.5 M 997.5 0.5 L 997.5 440.5 M 1008.5 0.5 L 1008.5 440.5 M 1020.5 0.5 L 1020.5 440.5 M 1042.5 0.5 L 1042.5 440.5 M 1054.5 0.5 L 1054.5 440.5 M 1065.5 0.5 L 1065.5 440.5 M 1077.5 0.5 L 1077.5 440.5 M 1099.5 0.5 L 1099.5 440.5 M 1111.5 0.5 L 1111.5 440.5 M 1122.5 0.5 L 1122.5 440.5 M 1133.5 0.5 L 1133.5 440.5 M 1156.5 0.5 L 1156.5 440.5" stroke-opacity="0.23529411764705882" stroke-linecap="round" stroke-linejoin="round" stroke-miterlimit="10"/><path fill="none" stroke="rgb(192,192,192)" paint-order="fill stroke markers" d=" M 0.5 26.5 L 1157.5 26.5 M 0.5 26.5 L 1157.5 26.5 M 0.5 83.5 L 1157.5 83.5 M 0.5 140.5 L 1157.5 140.5 M 0.5 254.5 L 1157.5 254.5 M 0.5 311.5 L 1157.5 311.5 M 0.5 368.5 L 1157.5 368.5 M 0.5 425.5 L 1157.5 425.5" stroke-opacity="1" stroke-linecap="round" stroke-linejoin="round" stroke-miterlimit="10"/><path fill="none" stroke="rgb(192,192,192)" paint-order="fill stroke markers" d=" M 0.5 3.5 L 1157.5 3.5 M 0.5 3.5 L 1157.5 3.5 M 0.5 15.5 L 1157.5 15.5 M 0.5 38.5 L 1157.5 38.5 M 0.5 49.5 L 1157.5 49.5 M 0.5 60.5 L 1157.5 60.5 M 0.5 72.5 L 1157.5 72.5 M 0.5 95.5 L 1157.5 95.5 M 0.5 106.5 L 1157.5 106.5 M 0.5 117.5 L 1157.5 117.5 M 0.5 129.5 L 1157.5 129.5 M 0.5 152.5 L 1157.5 152.5 M 0.5 163.5 L 1157.5 163.5 M 0.5 174.5 L 1157.5 174.5 M 0.5 186.5 L 1157.5 186.5 M 0.5 208.5 L 1157.5 208.5 M 0.5 220.5 L 1157.5 220.5 M 0.5 231.5 L 1157.5 231.5 M 0.5 243.5 L 1157.5 243.5 M 0.5 265.5 L 1157.5 265.5 M 0.5 277.5 L 1157.5 277.5 M 0.5 288.5 L 1157.5 288.5 M 0.5 300.5 L 1157.5 300.5 M 0.5 322.5 L 1157.5 322.5 M 0.5 334.5 L 1157.5 334.5 M 0.5 345.5 L 1157.5 345.5 M 0.5 356.5 L 1157.5 356.5 M 0.5 379.5 L 1157.5 379.5 M 0.5 391.5 L 1157.5 391.5 M 0.5 402.5 L 1157.5 402.5 M 0.5 413.5 L 1157.5 413.5 M 0.5 436.5 L 1157.5 436.5" stroke-opacity="0.23529411764705882" stroke-linecap="round" stroke-linejoin="round" stroke-miterlimit="10"/><path fill="none" stroke="rgb(37,37,37)" paint-order="fill stroke markers" d=" M 63.5 2.5 L 63.5 440.5" stroke-opacity="1" stroke-miterlimit="10"/><path fill="none" stroke="rgb(37,37,37)" paint-order="fill stroke markers" d=" M 63.5 1.5 L 59.5 5.5" stroke-opacity="1" stroke-miterlimit="10"/><path fill="none" stroke="rgb(37,37,37)" paint-order="fill stroke markers" d=" M 63.5 1.5 L 67.5 5.5" stroke-opacity="1" stroke-miterlimit="10"/><text fill="rgb(37,37,37)" stroke="none" font-family="geogebra-sans-serif, sans-serif" font-size="16px" font-style="normal" font-weight="normal" text-decoration="normal" x="1060" y="193" text-anchor="start" dominant-baseline="alphabetic" fill-opacity="1">Day of Year</text><path fill="none" stroke="rgb(37,37,37)" paint-order="fill stroke markers" d=" M 0.5 197.5 L 1155.5 197.5" stroke-opacity="1" stroke-miterlimit="10"/><path fill="none" stroke="rgb(37,37,37)" paint-order="fill stroke markers" d=" M 1156.5 197.5 L 1152.5 193.5" stroke-opacity="1" stroke-miterlimit="10"/><path fill="none" stroke="rgb(37,37,37)" paint-order="fill stroke markers" d=" M 1156.5 197.5 L 1152.5 201.5" stroke-opacity="1" stroke-miterlimit="10"/><text fill="rgb(37,37,37)" stroke="none" font-family="geogebra-sans-serif, sans-serif" font-size="12px" font-style="normal" font-weight="normal" text-decoration="normal" x="115" y="213" text-anchor="start" dominant-baseline="alphabetic" fill-opacity="1">20</text><text fill="rgb(37,37,37)" stroke="none" font-family="geogebra-sans-serif, sans-serif" font-size="12px" font-style="normal" font-weight="normal" text-decoration="normal" x="172" y="213" text-anchor="start" dominant-baseline="alphabetic" fill-opacity="1">40</text><text fill="rgb(37,37,37)" stroke="none" font-family="geogebra-sans-serif, sans-serif" font-size="12px" font-style="normal" font-weight="normal" text-decoration="normal" x="229" y="213" text-anchor="start" dominant-baseline="alphabetic" fill-opacity="1">60</text><text fill="rgb(37,37,37)" stroke="none" font-family="geogebra-sans-serif, sans-serif" font-size="12px" font-style="normal" font-weight="normal" text-decoration="normal" x="286" y="213" text-anchor="start" dominant-baseline="alphabetic" fill-opacity="1">80</text><text fill="rgb(37,37,37)" stroke="none" font-family="geogebra-sans-serif, sans-serif" font-size="12px" font-style="normal" font-weight="normal" text-decoration="normal" x="340" y="213" text-anchor="start" dominant-baseline="alphabetic" fill-opacity="1">100</text><text fill="rgb(37,37,37)" stroke="none" font-family="geogebra-sans-serif, sans-serif" font-size="12px" font-style="normal" font-weight="normal" text-decoration="normal" x="397" y="213" text-anchor="start" dominant-baseline="alphabetic" fill-opacity="1">120</text><text fill="rgb(37,37,37)" stroke="none" font-family="geogebra-sans-serif, sans-serif" font-size="12px" font-style="normal" font-weight="normal" text-decoration="normal" x="454" y="213" text-anchor="start" dominant-baseline="alphabetic" fill-opacity="1">140</text><text fill="rgb(37,37,37)" stroke="none" font-family="geogebra-sans-serif, sans-serif" font-size="12px" font-style="normal" font-weight="normal" text-decoration="normal" x="511" y="213" text-anchor="start" dominant-baseline="alphabetic" fill-opacity="1">160</text><text fill="rgb(37,37,37)" stroke="none" font-family="geogebra-sans-serif, sans-serif" font-size="12px" font-style="normal" font-weight="normal" text-decoration="normal" x="568" y="213" text-anchor="start" dominant-baseline="alphabetic" fill-opacity="1">180</text><text fill="rgb(37,37,37)" stroke="none" font-family="geogebra-sans-serif, sans-serif" font-size="12px" font-style="normal" font-weight="normal" text-decoration="normal" x="624" y="213" text-anchor="start" dominant-baseline="alphabetic" fill-opacity="1">200</text><text fill="rgb(37,37,37)" stroke="none" font-family="geogebra-sans-serif, sans-serif" font-size="12px" font-style="normal" font-weight="normal" text-decoration="normal" x="681" y="213" text-anchor="start" dominant-baseline="alphabetic" fill-opacity="1">220</text><text fill="rgb(37,37,37)" stroke="none" font-family="geogebra-sans-serif, sans-serif" font-size="12px" font-style="normal" font-weight="normal" text-decoration="normal" x="738" y="213" text-anchor="start" dominant-baseline="alphabetic" fill-opacity="1">240</text><text fill="rgb(37,37,37)" stroke="none" font-family="geogebra-sans-serif, sans-serif" font-size="12px" font-style="normal" font-weight="normal" text-decoration="normal" x="795" y="213" text-anchor="start" dominant-baseline="alphabetic" fill-opacity="1">260</text><text fill="rgb(37,37,37)" stroke="none" font-family="geogebra-sans-serif, sans-serif" font-size="12px" font-style="normal" font-weight="normal" text-decoration="normal" x="852" y="213" text-anchor="start" dominant-baseline="alphabetic" fill-opacity="1">280</text><text fill="rgb(37,37,37)" stroke="none" font-family="geogebra-sans-serif, sans-serif" font-size="12px" font-style="normal" font-weight="normal" text-decoration="normal" x="909" y="213" text-anchor="start" dominant-baseline="alphabetic" fill-opacity="1">300</text><text fill="rgb(37,37,37)" stroke="none" font-family="geogebra-sans-serif, sans-serif" font-size="12px" font-style="normal" font-weight="normal" text-decoration="normal" x="966" y="213" text-anchor="start" dominant-baseline="alphabetic" fill-opacity="1">320</text><text fill="rgb(37,37,37)" stroke="none" font-family="geogebra-sans-serif, sans-serif" font-size="12px" font-style="normal" font-weight="normal" text-decoration="normal" x="1023" y="213" text-anchor="start" dominant-baseline="alphabetic" fill-opacity="1">340</text><text fill="rgb(37,37,37)" stroke="none" font-family="geogebra-sans-serif, sans-serif" font-size="12px" font-style="normal" font-weight="normal" text-decoration="normal" x="1080" y="213" text-anchor="start" dominant-baseline="alphabetic" fill-opacity="1">360</text><text fill="rgb(37,37,37)" stroke="none" font-family="geogebra-sans-serif, sans-serif" font-size="12px" font-style="normal" font-weight="normal" text-decoration="normal" x="1137" y="213" text-anchor="start" dominant-baseline="alphabetic" fill-opacity="1">380</text><text fill="rgb(37,37,37)" stroke="none" font-family="geogebra-sans-serif, sans-serif" font-size="16px" font-style="normal" font-weight="normal" text-decoration="normal" x="68" y="17" text-anchor="start" dominant-baseline="alphabetic" fill-opacity="1">Sun Declination</text><text fill="rgb(37,37,37)" stroke="none" font-family="geogebra-sans-serif, sans-serif" font-size="12px" font-style="normal" font-weight="normal" text-decoration="normal" x="35" y="430" text-anchor="start" dominant-baseline="alphabetic" fill-opacity="1">–80</text><text fill="rgb(37,37,37)" stroke="none" font-family="geogebra-sans-serif, sans-serif" font-size="12px" font-style="normal" font-weight="normal" text-decoration="normal" x="35" y="373" text-anchor="start" dominant-baseline="alphabetic" fill-opacity="1">–60</text><text fill="rgb(37,37,37)" stroke="none" font-family="geogebra-sans-serif, sans-serif" font-size="12px" font-style="normal" font-weight="normal" text-decoration="normal" x="35" y="316" text-anchor="start" dominant-baseline="alphabetic" fill-opacity="1">–40</text><text fill="rgb(37,37,37)" stroke="none" font-family="geogebra-sans-serif, sans-serif" font-size="12px" font-style="normal" font-weight="normal" text-decoration="normal" x="35" y="259" text-anchor="start" dominant-baseline="alphabetic" fill-opacity="1">–20</text><text fill="rgb(37,37,37)" stroke="none" font-family="geogebra-sans-serif, sans-serif" font-size="12px" font-style="normal" font-weight="normal" text-decoration="normal" x="41" y="145" text-anchor="start" dominant-baseline="alphabetic" fill-opacity="1">20</text><text fill="rgb(37,37,37)" stroke="none" font-family="geogebra-sans-serif, sans-serif" font-size="12px" font-style="normal" font-weight="normal" text-decoration="normal" x="41" y="88" text-anchor="start" dominant-baseline="alphabetic" fill-opacity="1">40</text><text fill="rgb(37,37,37)" stroke="none" font-family="geogebra-sans-serif, sans-serif" font-size="12px" font-style="normal" font-weight="normal" text-decoration="normal" x="41" y="31" text-anchor="start" dominant-baseline="alphabetic" fill-opacity="1">60</text><text fill="rgb(37,37,37)" stroke="none" font-family="geogebra-sans-serif, sans-serif" font-size="12px" font-style="normal" font-weight="normal" text-decoration="normal" x="48" y="213" text-anchor="start" dominant-baseline="alphabetic" fill-opacity="1">0</text><path fill="none" stroke="rgb(0,103,88)" paint-order="fill stroke markers" d=" M 0.4999999999999716 262.77053489492204 L 0.4999999999999716 262.8557102504458 L 0.4999999999999716 262.8557102504458 L 1.5000000000000142 262.9384980139591 L 1.5000000000000142 262.9384980139591 L 2.4999999999999716 263.0188951582394 L 2.4999999999999716 263.0188951582394 L 3.500000000000014 263.0968987434798 L 3.500000000000014 263.09689874347976 L 4.499999999999979 263.1725059173964 L 4.499999999999979 263.1725059173964 L 5.500000000000021 263.24571391533254 L 5.500000000000021 263.24571391533254 L 6.499999999999986 263.3165200603602 L 6.499999999999986 263.3165200603602 L 7.49999999999995 263.3849217633773 L 7.49999999999995 263.3849217633773 L 8.499999999999993 263.4509165232031 L 8.499999999999993 263.4509165232031 L 9.49999999999995 263.51450192666914 L 9.49999999999995 263.5145019266691 L 10.5 263.5756756487075 L 10.5 263.5756756487075 L 11.499999999999957 263.6344354524362 L 11.499999999999957 263.6344354524362 L 12.5 263.69077918924063 L 12.5 263.6907791892406 L 13.499999999999964 263.7447047988521 L 13.499999999999964 263.7447047988521 L 14.500000000000007 263.7962103094236 L 14.500000000000007 263.7962103094236 L 15.499999999999972 263.8452938376014 L 15.499999999999972 263.8452938376014 L 16.500000000000014 263.89195358859416 L 16.500000000000014 263.8919535885941 L 17.49999999999998 263.9361878562385 L 17.49999999999998 263.9361878562385 L 18.50000000000002 263.97799502306157 L 18.50000000000002 263.97799502306157 L 19.49999999999998 264.0173735603398 L 19.49999999999998 264.0173735603398 L 20.50000000000002 264.0543220281553 L 20.50000000000002 264.05432202815524 L 21.499999999999986 264.088839075448 L 21.499999999999986 264.08883907544794 L 22.49999999999995 264.12092344006544 L 22.49999999999995 264.12092344006544 L 23.499999999999993 264.1505739488088 L 23.499999999999993 264.15057394880876 L 24.499999999999957 264.17778951747573 L 24.499999999999957 264.17778951747573 L 25.5 264.20256915090005 L 25.5 264.20256915090005 L 26.499999999999957 264.22491194298823 L 26.499999999999957 264.2249119429882 L 27.5 264.2448170767522 L 27.5 264.2448170767522 L 28.499999999999964 264.26228382433976 L 28.499999999999964 264.26228382433976 L 29.500000000000007 264.27731154706066 L 29.500000000000007 264.27731154706066 L 30.49999999999997 264.2898996954103 L 30.49999999999997 264.2898996954103 L 31.500000000000014 264.3000478090897 L 31.500000000000014 264.3000478090897 L 32.49999999999997 264.3077555170222 L 32.49999999999997 264.3077555170222 L 33.50000000000002 264.3130225373674 L 33.50000000000002 264.3130225373674 L 34.499999999999986 264.315848677531 L 34.499999999999986 264.315848677531 L 35.50000000000003 264.3163767679788 L 35.50000000000003 264.31623383417224 L 36.499999999999986 264.31417799320747 L 36.499999999999986 264.31417799320747 L 37.49999999999995 264.3096812298106 L 37.49999999999995 264.3096812298107 L 38.49999999999999 264.30274370841073 L 38.49999999999999 264.3027437084108 L 39.49999999999996 264.2933656826856 L 39.49999999999996 264.29336568268565 L 40.5 264.2815474955527 L 40.5 264.2815474955527 L 41.49999999999996 264.2672895791565 L 41.49999999999996 264.26728957915657 L 42.5 264.25059245485295 L 42.5 264.250592454853 L 43.49999999999997 264.23145673319016 L 43.49999999999997 264.23145673319016 L 44.500000000000014 264.209883113886 L 44.500000000000014 264.209883113886 L 45.49999999999997 264.1858723858028 L 45.49999999999997 264.18587238580284 L 46.500000000000014 264.1594254269184 L 46.500000000000014 264.1594254269184 L 47.49999999999998 264.1305432042938 L 47.49999999999998 264.1305432042938 L 48.50000000000002 264.09922677403824 L 48.50000000000002 264.0992267740383 L 49.499999999999986 264.06547728127026 L 49.499999999999986 264.06547728127026 L 50.50000000000003 264.0292959600758 L 50.50000000000003 264.02929596007584 L 51.499999999999986 263.99068413346333 L 51.499999999999986 263.99068413346333 L 52.49999999999995 263.9496432133153 L 52.49999999999995 263.9496432133153 L 53.49999999999999 263.9061747003365 L 53.49999999999999 263.9061747003366 L 54.49999999999996 263.86028018399935 L 54.49999999999996 263.86028018399935 L 55.5 263.8119613424854 L 55.5 263.81196134248546 L 56.499999999999964 263.76121994262456 L 56.499999999999964 263.76121994262456 L 57.50000000000001 263.70805783982985 L 57.50000000000001 263.7080578398299 L 58.499999999999964 263.6524769780301 L 58.499999999999964 263.65247697803017 L 59.500000000000014 263.5944793895985 L 59.500000000000014 263.5944793895986 L 60.49999999999997 263.5340671952785 L 60.49999999999997 263.53406719527857 L 61.500000000000014 263.47124260410607 L 61.500000000000014 263.4712426041061 L 62.49999999999998 263.40600791332906 L 62.49999999999998 263.4060079133291 L 63.50000000000002 263.3383655083233 L 63.50000000000002 263.3383655083233 L 64.49999999999999 263.26831786250506 L 64.49999999999999 263.26831786250506 L 65.50000000000003 263.19586753724093 L 65.50000000000003 263.19586753724093 L 66.49999999999999 263.1210171817539 L 66.49999999999999 263.1210171817539 L 67.49999999999996 263.04376953302676 L 67.49999999999996 263.0437695330268 L 68.5 262.96412741570185 L 68.5 262.96412741570185 L 69.49999999999996 262.88209374197766 L 69.49999999999996 262.88209374197766 L 70.5 262.7976715115026 L 70.5 262.7976715115026 L 71.49999999999996 262.71086381126514 L 71.49999999999996 262.71086381126514 L 72.5 262.621673815481 L 72.5 262.6216738154811 L 73.49999999999997 262.5301047854772 L 73.49999999999997 262.5301047854772 L 74.50000000000001 262.43616006957234 L 74.50000000000001 262.4361600695724 L 75.49999999999997 262.3398431029549 L 75.49999999999997 262.3398431029549 L 76.50000000000001 262.2411574075569 L 76.50000000000001 262.2411574075569 L 77.49999999999997 262.1401065919256 L 77.49999999999997 262.1401065919256 L 78.50000000000003 262.03669435109134 L 78.50000000000003 262.03669435109134 L 79.49999999999999 261.93092446643254 L 79.49999999999999 261.93092446643254 L 80.50000000000003 261.8228008055373 L 80.50000000000003 261.8228008055373 L 81.49999999999999 261.71232732206215 L 81.49999999999999 261.7123273220622 L 82.49999999999996 261.5995080555873 L 82.49999999999996 261.5995080555873 L 83.5 261.4843471314689 L 83.5 261.4843471314689 L 84.49999999999996 261.3668487606885 L 84.49999999999996 261.3668487606885 L 85.5 261.2470172396988 L 85.5 261.24701723969883 L 86.49999999999997 261.1248569502665 L 86.49999999999997 261.1248569502666 L 87.5 261.00037235931245 L 87.5 261.00037235931245 L 88.49999999999997 260.87356801874773 L 88.49999999999997 260.87356801874773 L 89.50000000000001 260.7444485653077 L 89.50000000000001 260.7444485653077 L 90.49999999999997 260.61301872038234 L 90.49999999999997 260.6130187203824 L 91.50000000000001 260.47928328984347 L 91.50000000000001 260.47928328984347 L 92.49999999999999 260.3432471638691 L 92.49999999999999 260.3432471638691 L 93.50000000000003 260.20491531676447 L 93.50000000000003 260.2049153167645 L 94.49999999999999 260.06429280678066 L 94.49999999999999 260.06429280678066 L 95.50000000000003 259.9213847759289 L 95.50000000000003 259.9213847759289 L 96.5 259.77619644979313 L 96.5 259.77619644979313 L 97.49999999999996 259.62873313733866 L 97.49999999999996 259.62873313733866 L 98.5 259.479000230718 L 98.5 259.479000230718 L 99.49999999999996 259.32700320507394 L 99.49999999999996 259.32700320507394 L 100.5 259.17274761833903 L 100.5 259.1727476183391 L 101.49999999999997 259.0162391110327 L 101.49999999999997 259.01623911103275 L 102.5 258.8574834060546 L 102.5 258.8574834060546 L 103.49999999999997 258.69648630847564 L 103.49999999999997 258.69648630847564 L 104.50000000000001 258.5332537053256 L 104.50000000000001 258.53325370532565 L 105.49999999999997 258.367791565378 L 105.49999999999997 258.36779156537807 L 106.50000000000003 258.20010593893164 L 106.50000000000003 258.2001059389317 L 107.49999999999997 258.0302029575895 L 107.49999999999997 258.03020295758955 L 108.50000000000003 257.85808883403445 L 108.50000000000003 257.8580888340345 L 109.49999999999999 257.6837698618022 L 109.49999999999999 257.6837698618022 L 110.50000000000003 257.507252415051 L 110.50000000000003 257.507252415051 L 111.5 257.3285429483288 L 111.5 257.3285429483288 L 112.49999999999996 257.14764799633684 L 112.49999999999996 257.1476479963369 L 113.5 256.96457417369123 L 113.5 256.96457417369123 L 114.49999999999996 256.77932817468064 L 114.49999999999996 256.7793281746807 L 115.5 256.5919167730217 L 115.5 256.59191677302175 L 116.49999999999997 256.40234682161133 L 116.49999999999997 256.40234682161133 L 117.5 256.210625252276 L 117.5 256.21062525227603 L 118.49999999999997 256.0167590755185 L 118.49999999999997 256.0167590755185 L 119.50000000000001 255.8207553802614 L 119.50000000000001 255.8207553802614 L 120.49999999999997 255.62262133358797 L 120.49999999999997 255.62262133358797 L 121.50000000000003 255.42236418047992 L 121.50000000000003 255.42236418047995 L 122.49999999999999 255.21999124355276 L 122.49999999999999 255.21999124355276 L 123.50000000000003 255.01550992278771 L 123.50000000000003 255.01550992278771 L 124.49999999999999 254.80892769526142 L 124.49999999999999 254.80892769526145 L 125.50000000000003 254.60025211487238 L 125.50000000000003 254.60025211487238 L 126.5 254.3894908120647 L 126.5 254.38949081206474 L 127.49999999999996 254.1766514935493 L 127.49999999999996 254.1766514935493 L 128.5 253.96174194202166 L 128.5 253.9617419420217 L 129.49999999999994 253.7447700158779 L 129.49999999999994 253.7447700158779 L 130.5 253.52574364892672 L 130.5 253.52574364892672 L 131.49999999999997 253.30467085009985 L 131.49999999999997 253.30467085009988 L 132.5 253.08155970315892 L 132.5 253.08155970315892 L 133.49999999999997 252.85641836639985 L 133.49999999999997 252.85641836639988 L 134.5 252.6292550723547 L 134.5 252.62925507235474 L 135.49999999999997 252.4000781274905 L 135.49999999999997 252.40007812749053 L 136.5 252.1688959119055 L 136.5 252.16889591190554 L 137.5 251.935716879023 L 137.5 251.935716879023 L 138.50000000000003 251.70054955528178 L 138.50000000000003 251.7005495552818 L 139.5 251.4634025398248 L 139.5 251.46340253982484 L 140.50000000000003 251.22428450418445 L 140.50000000000003 251.22428450418445 L 141.5 250.98320419196557 L 141.5 250.9832041919656 L 142.49999999999994 250.74017041852576 L 142.49999999999994 250.7401704185258 L 143.5 250.49519207065296 L 143.5 250.495192070653 L 144.49999999999994 250.2482781062406 L 144.49999999999994 250.2482781062406 L 145.5 249.9994375539599 L 145.5 249.99943755395992 L 146.49999999999997 249.7486795129299 L 146.49999999999997 249.74867951292993 L 147.5 249.4960131523846 L 147.5 249.4960131523846 L 148.49999999999997 249.2414477113377 L 148.49999999999997 249.24144771133774 L 149.5 248.98499249824488 L 149.5 248.9849924982449 L 150.5 248.72665689066332 L 150.5 248.72665689066332 L 151.50000000000003 248.46645033490873 L 151.50000000000003 248.46645033490876 L 152.5 248.20438234571014 L 152.5 248.20438234571014 L 153.50000000000003 247.94046250586177 L 153.50000000000003 247.9404625058618 L 154.5 247.6747004658729 L 154.5 247.6747004658729 L 155.50000000000003 247.4071059436145 L 155.50000000000003 247.4071059436145 L 156.5 247.13768872396457 L 156.5 247.13768872396457 L 157.49999999999994 246.86645865844972 L 157.49999999999994 246.86645865844974 L 158.5 246.59342566488527 L 158.5 246.59342566488527 L 159.49999999999994 246.31859972701253 L 159.49999999999994 246.31859972701255 L 160.5 246.04199089413368 L 160.5 246.0419908941337 L 161.49999999999997 245.76360928074448 L 161.49999999999997 245.76360928074448 L 162.5 245.4834650661641 L 162.5 245.4834650661641 L 163.49999999999997 245.20156849416318 L 163.49999999999997 245.2015684941632 L 164.5 244.91792987258924 L 164.5 244.91792987258924 L 165.5 244.63255957298958 L 165.5 244.6325595729896 L 166.50000000000003 244.3454680302322 L 166.50000000000003 244.3454680302322 L 167.5 244.05666574212424 L 167.5 244.05666574212427 L 168.50000000000003 243.7661632690279 L 168.50000000000003 243.7661632690279 L 169.5 243.47397123347463 L 169.5 243.47397123347463 L 170.50000000000003 243.18010031977636 L 170.50000000000003 243.1801003197764 L 171.5 242.88456127363514 L 171.5 242.88456127363514 L 172.49999999999994 242.58736490174996 L 172.49999999999994 242.58736490175 L 173.5 242.28852207142165 L 173.5 242.28852207142168 L 174.49999999999997 241.9880437101557 L 174.49999999999997 241.9880437101557 L 175.5 241.6859408052623 L 175.5 241.6859408052623 L 176.49999999999997 241.382224403455 L 176.49999999999997 241.382224403455 L 177.5 241.07690561044646 L 177.5 241.0769056104465 L 178.49999999999997 240.76999559054255 L 178.49999999999997 240.76999559054258 L 179.5 240.461505566234 L 179.5 240.461505566234 L 180.5 240.15144681778605 L 180.5 240.15144681778608 L 181.50000000000003 239.8398306828261 L 181.50000000000003 239.83983068282612 L 182.5 239.52666855592892 L 182.5 239.52666855592895 L 183.50000000000003 239.2119718882002 L 183.50000000000003 239.2119718882002 L 184.5 238.89575218685775 L 184.5 238.89575218685775 L 185.50000000000003 238.57802101481062 L 185.50000000000003 238.57802101481064 L 186.5 238.25878999023655 L 186.5 238.25878999023658 L 187.49999999999994 237.93807078615686 L 187.49999999999994 237.93807078615689 L 188.5 237.61587513000975 L 188.5 237.61587513000975 L 189.49999999999997 237.2922148032215 L 189.49999999999997 237.2922148032215 L 190.5 236.96710164077555 L 190.5 236.96710164077558 L 191.49999999999997 236.64054753077997 L 191.49999999999997 236.64054753077997 L 192.5 236.3125644140324 L 192.5 236.3125644140324 L 193.5 235.98316428358382 L 193.5 235.98316428358385 L 194.5 235.65235918429968 L 194.5 235.65235918429968 L 195.5 235.3201612124197 L 195.5 235.32016121241972 L 196.5 234.9865825151154 L 196.5 234.9865825151154 L 197.5 234.65163529004607 L 197.5 234.65163529004607 L 198.50000000000006 234.31533178491256 L 198.50000000000006 234.3153317849126 L 199.5 233.97768429700966 L 199.5 233.97768429700966 L 200.50000000000006 233.6387051727762 L 200.50000000000006 233.6387051727762 L 201.5 233.29840680734384 L 201.5 233.29840680734384 L 202.49999999999994 232.95680164408355 L 202.49999999999994 232.95680164408358 L 203.5 232.61390217415087 L 203.5 232.6139021741509 L 204.49999999999994 232.26972093602896 L 204.49999999999994 232.269720936029 L 205.5 231.9242705150702 L 205.5 231.92427051507022 L 206.5 231.5775635430361 L 206.5 231.5775635430361 L 207.5 231.22961269763508 L 207.5 231.2296126976351 L 208.5 230.88043070205936 L 208.5 230.88043070205936 L 209.5 230.53003032451926 L 209.5 230.53003032451926 L 210.5 230.17842437777668 L 210.5 230.17842437777668 L 211.5 229.8256257186763 L 211.5 229.82562571867632 L 212.5 229.47164724767578 L 212.5 229.47164724767578 L 213.50000000000006 229.11650190837364 L 213.50000000000006 229.11650190837364 L 214.5 228.76020268703633 L 214.5 228.76020268703635 L 215.5 228.40276261212318 L 215.5 228.40276261212318 L 216.5 228.04419475381002 L 216.5 228.04419475381005 L 217.5 227.68451222351132 L 217.5 227.68451222351135 L 218.5 227.3237281734007 L 218.5 227.3237281734007 L 219.5 226.96185579592995 L 219.5 226.96185579592998 L 220.5 226.59890832334682 L 220.5 226.59890832334685 L 221.5 226.234899027211 L 221.5 226.23489902721101 L 222.5 225.86984121790886 L 222.5 225.86984121790886 L 223.5 225.50374824416681 L 223.5 225.50374824416681 L 224.5 225.13663349256313 L 224.5 225.13663349256313 L 225.5 224.7685103870385 L 225.5 224.7685103870385 L 226.5 224.3993923884051 L 226.5 224.3993923884051 L 227.5 224.02929299385448 L 227.5 224.02929299385448 L 228.5 223.65822573646392 L 228.5 223.65822573646392 L 229.5 223.28620418470172 L 229.5 223.28620418470172 L 230.5 222.91324194193083 L 230.5 222.91324194193086 L 231.5 222.53935264591175 L 231.5 222.53935264591175 L 232.5 222.16454996830348 L 232.5 222.1645499683035 L 233.5 221.7888476141639 L 233.5 221.78884761416393 L 234.5 221.4122593214485 L 234.5 221.41225932144852 L 235.5 221.034798860508 L 235.5 221.03479886050803 L 236.5 220.65648003358498 L 236.5 220.65648003358498 L 237.5 220.27731667430896 L 237.5 220.27731667430896 L 238.5 219.8973226471908 L 238.5 219.8973226471908 L 239.5 219.5165118471155 L 239.5 219.5165118471155 L 240.5 219.13489819883438 L 240.5 219.13489819883438 L 241.5 218.75249565645552 L 241.5 218.75249565645555 L 242.5 218.36931820293404 L 242.5 218.36931820293404 L 243.5 217.98537984956027 L 243.5 217.98537984956027 L 244.5 217.60069463544778 L 244.5 217.60069463544778 L 245.5 217.21527662701985 L 245.5 217.21527662701985 L 246.5 216.82913991749518 L 246.5 216.82913991749518 L 247.5 216.44229862637252 L 247.5 216.44229862637252 L 248.5 216.0547668989144 L 248.5 216.05476689891444 L 249.5 215.66655890562996 L 249.5 215.66655890562996 L 250.5 215.27768884175654 L 250.5 215.27768884175654 L 251.5 214.888170926741 L 251.5 214.888170926741 L 252.5 214.49801940371938 L 252.5 214.49801940371938 L 253.5 214.10724853899643 L 253.5 214.10724853899643 L 254.5 213.71587262152372 L 254.5 213.71587262152372 L 255.5 213.32390596237718 L 255.5 213.32390596237718 L 256.5 212.93136289423387 L 256.5 212.93136289423387 L 257.5 212.53825777084785 L 257.5 212.53825777084785 L 258.5 212.14460496652535 L 258.5 212.14460496652535 L 259.5 211.7504188755991 L 259.5 211.7504188755991 L 260.5 211.3557139119021 L 260.5 211.3557139119021 L 261.5 210.9605045082403 L 261.5 210.96050450824032 L 262.5 210.56480511586525 L 262.5 210.56480511586525 L 263.5 210.16863020394536 L 263.5 210.16863020394536 L 264.5 209.77199425903686 L 264.5 209.77199425903686 L 265.5 209.37491178455426 L 265.5 209.37491178455426 L 266.5 208.97739730023983 L 266.5 208.97739730023983 L 267.5 208.5794653416327 L 267.5 208.5794653416327 L 268.5 208.18113045953748 L 268.5 208.18113045953748 L 269.5 207.78240721949206 L 269.5 207.7824072194921 L 270.5 207.38331020123508 L 270.5 207.38331020123508 L 271.5 206.98385399817266 L 271.5 206.98385399817266 L 272.5 206.58405321684506 L 272.5 206.58405321684506 L 273.5 206.1839224763923 L 273.5 206.1839224763923 L 274.5 205.78347640801974 L 274.5 205.78347640801977 L 275.5 205.38272965446308 L 275.5 205.38272965446308 L 276.5 204.9816968694528 L 276.5 204.9816968694528 L 277.5 204.5803927171785 L 277.5 204.5803927171785 L 278.5 204.1788318717526 L 278.5 204.1788318717526 L 279.5 203.77702901667377 L 279.5 203.7770290166738 L 280.5 203.37499884429002 L 280.5 203.37499884429002 L 281.5 202.97275605526139 L 281.5 202.97275605526139 L 282.5 202.5703153580226 L 282.5 202.5703153580226 L 283.5 202.16769146824504 L 283.5 202.16769146824504 L 284.5 201.7648991082987 L 284.5 201.7648991082987 L 285.5 201.3619530067139 L 285.5 201.3619530067139 L 286.5 200.9588678976426 L 286.5 200.9588678976426 L 287.5 200.55565852031987 L 287.5 200.55565852031987 L 288.5 200.15233961852462 L 288.5 200.15233961852462 L 289.5 199.7489259400408 L 289.5 199.7489259400408 L 290.5 199.34543223611783 L 290.5 199.34543223611783 L 291.5 198.9418732609314 L 291.5 198.94187326093143 L 292.5 198.53826377104394 L 292.5 198.53826377104394 L 293.5 198.13461852486498 L 293.5 198.13461852486498 L 294.5 197.73095228211145 L 294.5 197.73095228211145 L 295.5 197.32727980326817 L 295.5 197.32727980326817 L 296.5 196.9236158490479 L 296.5 196.9236158490479 L 297.5 196.5199751798517 L 297.5 196.5199751798517 L 298.5 196.11637255522925 L 298.5 196.11637255522925 L 299.5 195.71282273333898 L 299.5 195.71282273333898 L 300.5 195.30934047040864 L 300.5 195.30934047040864 L 301.5 194.90594052019554 L 301.5 194.90594052019554 L 302.5 194.50263763344716 L 302.5 194.50263763344716 L 303.5 194.09944655736177 L 303.5 194.09944655736177 L 304.5 193.69638203504917 L 304.5 193.69638203504917 L 305.5 193.29345880499153 L 305.5 193.29345880499153 L 306.5 192.8906916005046 L 306.5 192.8906916005046 L 307.5 192.48809514919878 L 307.5 192.48809514919878 L 308.5 192.08568417244084 L 308.5 192.08568417244084 L 309.5 191.68347338481536 L 309.5 191.6834733848154 L 310.5 191.28147749358686 L 310.5 191.28147749358686 L 311.5 190.87971119816186 L 311.5 190.87971119816189 L 312.5 190.4781891895516 L 312.5 190.4781891895516 L 313.5 190.0769261498346 L 313.5 190.0769261498346 L 314.5 189.67593675161993 L 314.5 189.67593675161993 L 315.5 189.27523565751073 L 315.5 189.27523565751073 L 316.5 188.8748375195679 L 316.5 188.8748375195679 L 317.5 188.47475697877448 L 317.5 188.47475697877448 L 318.5 188.07500866450022 L 318.5 188.07500866450025 L 319.5 187.6756071939667 L 319.5 187.6756071939667 L 320.5 187.2765671717127 L 320.5 187.2765671717127 L 321.5 186.87790318906036 L 321.5 186.87790318906036 L 322.5 186.47962982358146 L 322.5 186.47962982358146 L 323.5 186.08176163856447 L 323.5 186.08176163856447 L 324.5 185.684313182482 L 324.5 185.684313182482 L 325.5 185.28729898845884 L 325.5 185.28729898845884 L 326.5 184.89073357374053 L 326.5 184.89073357374053 L 327.5 184.4946314391625 L 327.5 184.4946314391625 L 328.5 184.09900706861987 L 328.5 184.09900706861987 L 329.5 183.7038749285378 L 329.5 183.7038749285378 L 330.5 183.3092494673425 L 330.5 183.3092494673425 L 331.5 182.91514511493295 L 331.5 182.91514511493295 L 332.5 182.52157628215326 L 332.5 182.52157628215326 L 333.5 182.12855736026563 L 333.5 182.12855736026563 L 334.5 181.73610272042424 L 334.5 181.73610272042424 L 335.5 181.3442267131497 L 335.5 181.3442267131497 L 336.5 180.95294366780428 L 336.5 180.95294366780428 L 337.5 180.56226789206795 L 337.5 180.56226789206795 L 338.5 180.17221367141525 L 338.5 180.17221367141525 L 339.5 179.7827952685929 L 339.5 179.78279526859293 L 340.5 179.3940269230983 L 340.5 179.39402692309832 L 341.5 179.00592285065875 L 341.5 179.00592285065875 L 342.5 178.61849724271167 L 342.5 178.6184972427117 L 343.5 178.23176426588583 L 343.5 178.23176426588586 L 344.5 177.84573806148313 L 344.5 177.84573806148313 L 345.5 177.46043274496157 L 345.5 177.46043274496157 L 346.5 177.07586240541914 L 346.5 177.07586240541914 L 347.5 176.69204110507863 L 347.5 176.69204110507863 L 348.5 176.30898287877338 L 348.5 176.3089828787734 L 349.5 175.9267017334342 L 349.5 175.9267017334342 L 350.5 175.54521164757702 L 350.5 175.54521164757702 L 351.5 175.16452657079185 L 351.5 175.16452657079185 L 352.5 174.78466042323276 L 352.5 174.78466042323276 L 353.5 174.4056270951087 L 353.5 174.40562709510874 L 354.5 174.02744044617583 L 354.5 174.02744044617583 L 355.5 173.65011430523043 L 355.5 173.65011430523043 L 356.5 173.27366246960347 L 356.5 173.2736624696035 L 357.5 172.89809870465606 L 357.5 172.89809870465606 L 358.5 172.52343674327597 L 358.5 172.52343674327597 L 359.5 172.1496902853756 L 359.5 172.14969028537564 L 360.5 171.7768729973911 L 360.5 171.7768729973911 L 361.5 171.40499851178237 L 361.5 171.40499851178237 L 362.5 171.03408042653479 L 362.5 171.03408042653479 L 363.5 170.664132304662 L 363.5 170.66413230466202 L 364.5 170.29516767370987 L 364.5 170.29516767370987 L 365.5 169.92720002526184 L 365.5 169.92720002526187 L 366.5 169.5602428144457 L 366.5 169.5602428144457 L 367.5 169.19430945944146 L 367.5 169.19430945944146 L 368.5 168.82941334099078 L 368.5 168.82941334099078 L 369.5 168.46556780190764 L 369.5 168.46556780190764 L 370.5 168.10278614659052 L 370.5 168.10278614659052 L 371.5 167.74108164053578 L 371.5 167.74108164053578 L 372.5 167.38046750985276 L 372.5 167.38046750985276 L 373.5 167.02095694078 L 373.5 167.02095694078 L 374.5 166.66256307920318 L 374.5 166.6625630792032 L 375.5 166.30529903017438 L 375.5 166.3052990301744 L 376.5 165.94917785743286 L 376.5 165.94917785743286 L 377.5 165.5942125829274 L 377.5 165.5942125829274 L 378.5 165.24041618634013 L 378.5 165.24041618634016 L 379.5 164.88780160461198 L 379.5 164.88780160461198 L 380.5 164.53638173146948 L 380.5 164.5363817314695 L 381.5 164.18616941695342 L 381.5 164.18616941695342 L 382.5 163.83717746694896 L 382.5 163.83717746694896 L 383.5 163.48941864271717 L 383.5 163.4894186427172 L 384.5 163.14290566042882 L 384.5 163.14290566042882 L 385.5 162.79765119069893 L 385.5 162.79765119069896 L 386.5 162.45366785812382 L 386.5 162.45366785812382 L 387.5 162.11096824081918 L 387.5 162.1109682408192 L 388.5 161.76956486996045 L 388.5 161.76956486996048 L 389.5 161.42947022932435 L 389.5 161.42947022932435 L 390.5 161.0906967548325 L 390.5 161.0906967548325 L 391.5 160.75325683409665 L 391.5 160.75325683409667 L 392.5 160.41716280596586 L 392.5 160.41716280596586 L 393.5 160.08242696007503 L 393.5 160.08242696007503 L 394.5 159.7490615363958 L 394.5 159.74906153639583 L 395.5 159.41707872478884 L 395.5 159.41707872478884 L 396.5 159.08649066455814 L 396.5 159.08649066455817 L 397.5 158.7573094440071 L 397.5 158.75730944400712 L 398.5 158.4295470999966 L 398.5 158.42954709999663 L 399.5 158.10321561750467 L 399.5 158.10321561750467 L 400.5 157.77832692918852 L 400.5 157.77832692918855 L 401.5 157.45489291494795 L 401.5 157.45489291494798 L 402.5 157.13292540149106 L 402.5 157.1329254014911 L 403.5 156.81243616190193 L 403.5 156.81243616190193 L 404.5 156.49343691520977 L 404.5 156.4934369152098 L 405.5 156.17593932596083 L 405.5 156.17593932596083 L 406.5 155.85995500379147 L 406.5 155.85995500379147 L 407.5 155.54549550300396 L 407.5 155.545495503004 L 408.50000000000006 155.23257232214382 L 408.50000000000006 155.23257232214385 L 409.5 154.92119690357944 L 409.5 154.92119690357947 L 410.5 154.61138063308357 L 410.5 154.61138063308357 L 411.5 154.30313483941703 L 411.5 154.30313483941705 L 412.5 153.99647079391463 L 412.5 153.99647079391463 L 413.5 153.69139971007274 L 413.5 153.69139971007274 L 414.5 153.38793274313946 L 414.5 153.38793274313946 L 415.5 153.08608098970663 L 415.5 153.08608098970666 L 416.5 152.7858554873041 L 416.5 152.78585548730413 L 417.5 152.48726721399618 L 417.5 152.4872672139962 L 418.5 152.19032708798008 L 418.5 152.19032708798008 L 419.5 151.89504596718672 L 419.5 151.89504596718675 L 420.5 151.60143464888387 L 420.5 151.60143464888387 L 421.5 151.30950386928106 L 421.5 151.3095038692811 L 422.5 151.01926430313728 L 422.5 151.0192643031373 L 423.50000000000006 150.73072656337035 L 423.50000000000006 150.73072656337035 L 424.5 150.44390120066913 L 424.5 150.44390120066913 L 425.5 150.15879870310746 L 425.5 150.1587987031075 L 426.5 149.875429495761 L 426.5 149.875429495761 L 427.5 149.59380394032559 L 427.5 149.5938039403256 L 428.5 149.31393233473867 L 428.5 149.3139323347387 L 429.50000000000006 149.03582491280267 L 429.50000000000006 149.0358249128027 L 430.5 148.7594918438108 L 430.5 148.7594918438108 L 431.5 148.48494323217506 L 431.5 148.48494323217508 L 432.5 148.21218911705694 L 432.5 148.21218911705694 L 433.5 147.9412394720003 L 433.5 147.9412394720003 L 434.5 147.6721042045665 L 434.5 147.67210420456652 L 435.5 147.40479315597244 L 435.5 147.40479315597247 L 436.5 147.13931610073035 L 436.5 147.13931610073038 L 437.5 146.87568274629072 L 437.5 146.87568274629075 L 438.50000000000006 146.61390273268697 L 438.50000000000006 146.61390273268697 L 439.5 146.35398563218328 L 439.5 146.35398563218328 L 440.49999999999994 146.0959409489244 L 440.49999999999994 146.0959409489244 L 441.5 145.8397781185881 L 441.5 145.83977811858813 L 442.50000000000006 145.58550650804034 L 442.50000000000006 145.58550650804034 L 443.5 145.33313541499246 L 443.5 145.33313541499246 L 444.49999999999994 145.08267406766146 L 444.49999999999994 145.08267406766146 L 445.5 144.8341316244324 L 445.5 144.83413162443242 L 446.50000000000006 144.58751717352362 L 446.50000000000006 144.58751717352362 L 447.5 144.34283973265437 L 447.5 144.3428397326544 L 448.5 144.10010824871506 L 448.5 144.1001082487151 L 449.5 143.85933159744008 L 449.5 143.8593315974401 L 450.5 143.62051858308342 L 450.5 143.62051858308342 L 451.50000000000006 143.38367793809638 L 451.50000000000006 143.3836779380964 L 452.5 143.14881832280872 L 452.5 143.14881832280872 L 453.50000000000006 142.91594832511154 L 453.50000000000006 142.91594832511157 L 454.5 142.68507646014365 L 454.5 142.68507646014365 L 455.50000000000006 142.4562111699798 L 455.50000000000006 142.4562111699798 L 456.5 142.22936082332245 L 456.5 142.22936082332245 L 457.49999999999994 142.0045337151953 L 457.49999999999994 142.0045337151953 L 458.5 141.78173806664026 L 458.5 141.7817380666403 L 459.50000000000006 141.5609820244168 L 459.50000000000006 141.56098202441683 L 460.5 141.342273660704 L 460.5 141.34227366070402 L 461.5 141.1256209728054 L 461.5 141.1256209728054 L 462.5 140.9110318828565 L 462.5 140.91103188285652 L 463.5 140.69851423753528 L 463.5 140.69851423753528 L 464.5 140.488075807775 L 464.5 140.48807580777503 L 465.5 140.27972428848037 L 465.5 140.2797242884804 L 466.50000000000006 140.07346729824584 L 466.50000000000006 140.07346729824584 L 467.5 139.8693123790773 L 467.5 139.86931237907731 L 468.50000000000006 139.66726699611604 L 468.50000000000006 139.66726699611607 L 469.5 139.46733853736615 L 469.5 139.46733853736615 L 470.49999999999994 139.26953431342386 L 470.49999999999994 139.2695343134239 L 471.5 139.0738615572107 L 471.5 139.07386155721073 L 472.50000000000006 138.88032742370874 L 472.50000000000006 138.88032742370876 L 473.5 138.68893898969907 L 473.5 138.6889389896991 L 474.49999999999994 138.49970325350301 L 474.49999999999994 138.49970325350301 L 475.5 138.31262713472609 L 475.5 138.3126271347261 L 476.50000000000006 138.1277174740053 L 476.50000000000006 138.1277174740053 L 477.5 137.94498103275865 L 477.5 137.94498103275868 L 478.5 137.7644244929382 L 478.5 137.7644244929382 L 479.5 137.58605445678543 L 479.5 137.58605445678546 L 480.5 137.4098774465902 L 480.5 137.40987744659023 L 481.50000000000006 137.2358999044519 L 481.50000000000006 137.2358999044519 L 482.5 137.06412819204408 L 482.5 137.0641281920441 L 483.50000000000006 136.89456859038177 L 483.50000000000006 136.89456859038177 L 484.5 136.72722729959185 L 484.5 136.72722729959185 L 485.50000000000006 136.56211043868626 L 485.50000000000006 136.56211043868626 L 486.5 136.39922404533837 L 486.5 136.3992240453384 L 487.49999999999994 136.2385740756621 L 487.49999999999994 136.23857407566211 L 488.5 136.0801664039941 L 488.5 136.0801664039941 L 489.50000000000006 135.92400682267913 L 489.50000000000006 135.92400682267913 L 490.5 135.77010104185806 L 490.5 135.77010104185808 L 491.5 135.61845468925918 L 491.5 135.61845468925918 L 492.5 135.46907330999238 L 492.5 135.46907330999238 L 493.5 135.32196236634638 L 493.5 135.32196236634638 L 494.5 135.17712723758905 L 494.5 135.17712723758908 L 495.5 135.03457321977066 L 495.5 135.03457321977066 L 496.50000000000006 134.89430552553017 L 496.50000000000006 134.8943055255302 L 497.5 134.75632928390485 L 497.5 134.75632928390485 L 498.50000000000006 134.62064954014235 L 498.50000000000006 134.62064954014238 L 499.5 134.48727125551665 L 499.5 134.48727125551667 L 500.50000000000006 134.3561993071463 L 500.50000000000006 134.3561993071463 L 501.5 134.22743848781627 L 501.5 134.2274384878163 L 502.50000000000006 134.10099350580262 L 502.50000000000006 134.10099350580262 L 503.5 133.97686898470036 L 503.5 133.9768689847004 L 504.5 133.85506946325444 L 504.5 133.85506946325444 L 505.5 133.7355993951936 L 505.5 133.73559939519362 L 506.5 133.6184631490678 L 506.5 133.6184631490678 L 507.5 133.5036650080882 L 507.5 133.5036650080882 L 508.5 133.39120916997075 L 508.5 133.39120916997075 L 509.5 133.2810997467825 L 509.5 133.2810997467825 L 510.5 133.1733407647915 L 510.5 133.17334076479153 L 511.50000000000006 133.0679361643193 L 511.50000000000006 133.06793616431932 L 512.5 132.96488979959705 L 512.5 132.96488979959707 L 513.5000000000001 132.86420543862442 L 513.5000000000001 132.86420543862445 L 514.5 132.76588676303209 L 514.5 132.76588676303209 L 515.5000000000001 132.6699373679467 L 515.5000000000001 132.66993736794672 L 516.5 132.5763607618598 L 516.5 132.5763607618598 L 517.5 132.48516036649937 L 517.5 132.48516036649937 L 518.5 132.39633951670464 L 518.5 132.39633951670464 L 519.5000000000001 132.30990146030433 L 519.5000000000001 132.30990146030436 L 520.5 132.2258493579978 L 520.5 132.2258493579978 L 521.5 132.1441862832393 L 521.5 132.14418628323932 L 522.5 132.06491522212593 L 522.5 132.06491522212593 L 523.5 131.98803907328818 L 523.5 131.9880390732882 L 524.5 131.9135606477841 L 524.5 131.9135606477841 L 525.5 131.84148266899632 L 525.5 131.84148266899632 L 526.5000000000001 131.77180777253272 L 526.5000000000001 131.77180777253272 L 527.5 131.70453850612986 L 527.5 131.7045385061299 L 528.5000000000001 131.63967732955987 L 528.5000000000001 131.6396773295599 L 529.5 131.57722661454056 L 529.5 131.57722661454056 L 530.5000000000001 131.51718864464857 L 530.5000000000001 131.5171886446486 L 531.5 131.4595656152361 L 531.5 131.45956561523613 L 532.5000000000001 131.40435963335037 L 532.5000000000001 131.4043596333504 L 533.5 131.35157271765672 L 533.5 131.35157271765672 L 534.5 131.30120679836472 L 534.5 131.30120679836475 L 535.5 131.25326371715778 L 535.5 131.25326371715778 L 536.5 131.20774522712549 L 536.5 131.20774522712549 L 537.5 131.16465299269976 L 537.5 131.16465299269976 L 538.5 131.12398858959398 L 538.5 131.12398858959398 L 539.5000000000001 131.08575350474513 L 539.5000000000001 131.08575350474513 L 540.5 131.04994913625973 L 540.5 131.04994913625973 L 541.5000000000001 131.01657679336253 L 541.5000000000001 131.01657679336253 L 542.5 130.98563769634865 L 542.5 130.9856376963487 L 543.5000000000001 130.95713297653907 L 543.5000000000001 130.9571329765391 L 544.5 130.93106367623912 L 544.5 130.93106367623915 L 545.5000000000001 130.90743074870042 L 545.5000000000001 130.90743074870042 L 546.5 130.88623505808607 L 546.5 130.88623505808607 L 547.5 130.86747737943898 L 547.5 130.867477379439 L 548.5 130.85115839865364 L 548.5 130.85115839865367 L 549.5 130.83727871245088 L 549.5 130.83727871245088 L 550.5 130.82583882835615 L 550.5 130.82583882835615 L 551.5 130.81683916468097 L 551.5 130.81683916468097 L 552.5 130.81028005050757 L 552.5 130.81028005050757 L 553.5 130.806161725677 L 553.5 130.806161725677 L 554.5000000000001 130.80448434078008 L 554.5000000000001 130.80524795715223 L 555.5 130.8044415826969 L 555.5 130.80524795715223 L 556.5000000000001 130.80845254687102 L 556.5000000000001 130.80845254687102 L 557.5 130.81409799275718 L 557.5 130.81409799275718 L 558.5000000000001 130.822184088379 L 558.5000000000001 130.822184088379 L 559.5 130.83271053805984 L 559.5 130.8327105380598 L 560.5000000000001 130.84567695688887 L 560.5000000000001 130.84567695688884 L 561.5 130.86108287073517 L 561.5 130.86108287073517 L 562.5000000000001 130.87892771626522 L 562.5000000000001 130.87892771626522 L 563.5 130.89921084096326 L 563.5 130.89921084096326 L 564.5 130.92193150315532 L 564.5 130.9219315031553 L 565.5 130.94708887203623 L 565.5 130.9470888720362 L 566.5 130.9746820277001 L 566.5 130.97468202770008 L 567.5 131.00470996117392 L 567.5 131.0047099611739 L 568.5 131.0371715744544 L 568.5 131.03717157445436 L 569.5000000000001 131.07206568054818 L 569.5000000000001 131.07206568054815 L 570.5 131.1093910035152 L 570.5 131.1093910035152 L 571.5000000000001 131.14914617851545 L 571.5000000000001 131.14914617851542 L 572.5 131.19132975185872 L 572.5 131.19132975185872 L 573.5000000000001 131.23594018105786 L 573.5000000000001 131.23594018105786 L 574.5 131.28297583488518 L 574.5 131.28297583488518 L 575.5000000000001 131.33243499343203 L 575.5000000000001 131.332434993432 L 576.5 131.38431584817178 L 576.5 131.38431584817175 L 577.5 131.4386165020259 L 577.5 131.43861650202587 L 578.5 131.4953349694333 L 578.5 131.4953349694333 L 579.5 131.55446917642303 L 579.5 131.554469176423 L 580.5 131.61601696069 L 580.5 131.61601696069 L 581.5 131.67997607167416 L 581.5 131.67997607167413 L 582.5 131.7463441706427 L 582.5 131.74634417064266 L 583.5 131.8151188307756 L 583.5 131.81511883077556 L 584.5 131.8862975372544 L 584.5 131.88629753725436 L 585.5 131.9598776873541 L 585.5 131.9598776873541 L 586.5 132.03585659053846 L 586.5 132.0358565905384 L 587.5 132.1142314685581 L 587.5 132.1142314685581 L 588.5 132.19499945555253 L 588.5 132.19499945555253 L 589.5 132.27815759815445 L 589.5 132.27815759815445 L 590.5 132.36370285559812 L 590.5 132.3637028555981 L 591.5 132.45163209983036 L 591.5 132.45163209983036 L 592.5 132.54194211562503 L 592.5 132.54194211562503 L 593.5 132.63462960070046 L 593.5 132.63462960070046 L 594.5 132.7296911658404 L 594.5 132.7296911658404 L 595.5 132.82712333501777 L 595.5 132.82712333501777 L 596.5 132.92692254552185 L 596.5 132.92692254552185 L 597.5 133.02908514808857 L 597.5 133.02908514808854 L 598.5 133.13360740703385 L 598.5 133.13360740703385 L 599.5 133.24048550039038 L 599.5 133.24048550039038 L 600.5 133.34971552004714 L 600.5 133.34971552004714 L 601.5 133.46129347189253 L 601.5 133.46129347189253 L 602.5 133.57521527596026 L 602.5 133.57521527596023 L 603.5 133.69147676657857 L 603.5 133.69147676657857 L 604.5 133.81007369252268 L 604.5 133.81007369252268 L 605.5 133.93100171717006 L 605.5 133.93100171717003 L 606.5 134.05425641865907 L 606.5 134.05425641865904 L 607.5 134.17983329005068 L 607.5 134.17983329005068 L 608.5 134.3077277394933 L 608.5 134.30772773949326 L 609.5000000000001 134.43793509039054 L 609.5000000000001 134.43793509039054 L 610.5 134.5704505815724 L 610.5 134.5704505815724 L 611.5 134.70526936746927 L 611.5 134.70526936746924 L 612.5 134.84238651828906 L 612.5 134.84238651828903 L 613.5 134.98179702019758 L 613.5 134.98179702019758 L 614.5 135.12349577550182 L 614.5 135.1234957755018 L 615.5 135.26747760283632 L 615.5 135.26747760283632 L 616.5 135.41373723735273 L 616.5 135.41373723735273 L 617.5 135.56226933091222 L 617.5 135.5622693309122 L 618.5 135.71306845228105 L 618.5 135.71306845228105 L 619.5 135.86612908732923 L 619.5 135.86612908732923 L 620.5 136.02144563923218 L 620.5 136.02144563923218 L 621.5 136.17901242867526 L 621.5 136.17901242867526 L 622.5 136.33882369406152 L 622.5 136.33882369406152 L 623.5 136.50087359172232 L 623.5 136.50087359172232 L 624.5 136.66515619613116 L 624.5 136.66515619613114 L 625.5 136.83166550012015 L 625.5 136.83166550012012 L 626.5 137.0003954150998 L 626.5 137.00039541509977 L 627.5 137.17133977128162 L 627.5 137.1713397712816 L 628.5 137.34449231790373 L 628.5 137.3444923179037 L 629.5 137.51984672345944 L 629.5 137.5198467234594 L 630.5 137.69739657592868 L 630.5 137.69739657592868 L 631.5 137.87713538301264 L 631.5 137.87713538301261 L 632.5 138.059056572371 L 632.5 138.05905657237096 L 633.5 138.24315349186224 L 633.5 138.24315349186224 L 634.5 138.42941940978713 L 634.5 138.4294194097871 L 635.5 138.61784751513457 L 635.5 138.61784751513454 L 636.5 138.80843091783083 L 636.5 138.8084309178308 L 637.5 139.00116264899142 L 637.5 139.00116264899142 L 638.5 139.196035661176 L 638.5 139.196035661176 L 639.5000000000001 139.393042828646 L 639.5000000000001 139.393042828646 L 640.5 139.5921769476251 L 640.5 139.5921769476251 L 641.5 139.7934307365628 L 641.5 139.7934307365628 L 642.5 139.9967968364007 L 642.5 139.9967968364007 L 643.5 140.20226781084142 L 643.5 140.2022678108414 L 644.5 140.4098361466206 L 644.5 140.40983614662056 L 645.5 140.61949425378162 L 645.5 140.61949425378162 L 646.5 140.8312344659533 L 646.5 140.8312344659533 L 647.5 141.04504904062986 L 647.5 141.04504904062983 L 648.5 141.2609301594544 L 648.5 141.2609301594544 L 649.5 141.47886992850462 L 649.5 141.4788699285046 L 650.5 141.69886037858146 L 650.5 141.69886037858146 L 651.5 141.9208934655005 L 651.5 141.9208934655005 L 652.5000000000001 142.14496107038627 L 652.5000000000001 142.14496107038624 L 653.5 142.37105499996878 L 653.5 142.37105499996878 L 654.5 142.59916698688352 L 654.5 142.59916698688352 L 655.5 142.82928868997348 L 655.5 142.82928868997345 L 656.5 143.06141169459423 L 656.5 143.0614116945942 L 657.5 143.29552751292167 L 657.5 143.29552751292167 L 658.5 143.5316275842623 L 658.5 143.5316275842623 L 659.5 143.76970327536642 L 659.5 143.76970327536642 L 660.5 144.00974588074354 L 660.5 144.0097458807435 L 661.5 144.25174662298093 L 661.5 144.25174662298093 L 662.5 144.49569665306453 L 662.5 144.4956966530645 L 663.5 144.74158705070252 L 663.5 144.7415870507025 L 664.5 144.98940882465132 L 664.5 144.98940882465132 L 665.5 145.23915291304473 L 665.5 145.23915291304473 L 666.5 145.49081018372502 L 666.5 145.490810183725 L 667.5 145.7443714345768 L 667.5 145.74437143457678 L 668.5 145.9998273938638 L 668.5 145.99982739386377 L 669.5000000000001 146.25716872056762 L 669.5000000000001 146.2571687205676 L 670.5 146.51638600472936 L 670.5 146.51638600472936 L 671.5 146.77746976779386 L 671.5 146.77746976779386 L 672.5 147.04041046295615 L 672.5 147.04041046295612 L 673.5 147.30519847551045 L 673.5 147.30519847551045 L 674.5 147.57182412320202 L 674.5 147.57182412320202 L 675.5 147.84027765658095 L 675.5 147.84027765658092 L 676.5 148.11054925935875 L 676.5 148.11054925935872 L 677.5 148.38262904876728 L 677.5 148.38262904876726 L 678.5 148.65650707592022 L 678.5 148.6565070759202 L 679.5 148.93217332617664 L 679.5 148.93217332617664 L 680.5 149.2096177195075 L 680.5 149.2096177195075 L 681.5 149.48883011086394 L 681.5 149.48883011086394 L 682.5000000000001 149.76980029054846 L 682.5000000000001 149.76980029054843 L 683.5 150.052517984588 L 683.5 150.052517984588 L 684.5 150.33697285511005 L 684.5 150.33697285511005 L 685.5 150.6231545007202 L 685.5 150.6231545007202 L 686.5000000000001 150.91105245688277 L 686.5000000000001 150.91105245688274 L 687.5 151.20065619630316 L 687.5 151.20065619630316 L 688.5 151.49195512931334 L 688.5 151.4919551293133 L 689.5 151.78493860425846 L 689.5 151.78493860425846 L 690.5 152.07959590788667 L 690.5 152.07959590788664 L 691.5 152.37591626574084 L 691.5 152.37591626574084 L 692.5 152.67388884255246 L 692.5 152.67388884255246 L 693.5 152.97350274263792 L 693.5 152.9735027426379 L 694.5 153.2747470102968 L 694.5 153.27474701029678 L 695.5 153.57761063021266 L 695.5 153.57761063021263 L 696.5 153.88208252785563 L 696.5 153.8820825278556 L 697.5 154.1881515698875 L 697.5 154.18815156988748 L 698.5 154.49580656456882 L 698.5 154.4958065645688 L 699.5000000000001 154.8050362621681 L 699.5000000000001 154.80503626216807 L 700.5 155.11582935537302 L 700.5 155.115829355373 L 701.5 155.42817447970418 L 701.5 155.42817447970415 L 702.5 155.74206021393056 L 702.5 155.74206021393053 L 703.5 156.0574750804869 L 703.5 156.05747508048688 L 704.5 156.37440754589377 L 704.5 156.37440754589375 L 705.5 156.6928460211791 L 705.5 156.69284602117907 L 706.5 157.01277886230193 L 706.5 157.01277886230193 L 707.5 157.3341943705782 L 707.5 157.3341943705782 L 708.5 157.6570807931086 L 708.5 157.6570807931086 L 709.5 157.9814263232083 L 709.5 157.9814263232083 L 710.5 158.3072191008386 L 710.5 158.3072191008386 L 711.5 158.63444721304074 L 711.5 158.63444721304074 L 712.5000000000001 158.96309869437127 L 712.5000000000001 158.96309869437124 L 713.5 159.29316152733986 L 713.5 159.29316152733983 L 714.5 159.62462364284858 L 714.5 159.62462364284858 L 715.5 159.95747292063334 L 715.5 159.9574729206333 L 716.5000000000001 160.29169718970675 L 716.5000000000001 160.29169718970672 L 717.5 160.62728422880363 L 717.5 160.6272842288036 L 718.5 160.96422176682756 L 718.5 160.96422176682756 L 719.5 161.30249748329982 L 719.5 161.30249748329982 L 720.5 161.64209900880957 L 720.5 161.64209900880954 L 721.5 161.98301392546645 L 721.5 161.98301392546645 L 722.5 162.32522976735464 L 722.5 162.32522976735464 L 723.5 162.66873402098855 L 723.5 162.66873402098852 L 724.5 163.0135141257703 L 724.5 163.0135141257703 L 725.5000000000001 163.3595574744495 L 725.5000000000001 163.3595574744495 L 726.5 163.7068514135835 L 726.5 163.70685141358348 L 727.5 164.05538324400078 L 727.5 164.05538324400075 L 728.5 164.40514022126484 L 728.5 164.40514022126484 L 729.5000000000001 164.7561095561406 L 729.5000000000001 164.7561095561406 L 730.5 165.10827841506153 L 730.5 165.10827841506153 L 731.5 165.46163392059947 L 731.5 165.46163392059944 L 732.5 165.81616315193514 L 732.5 165.81616315193514 L 733.5 166.17185314533083 L 733.5 166.17185314533083 L 734.5 166.52869089460432 L 734.5 166.52869089460432 L 735.5 166.88666335160437 L 735.5 166.88666335160434 L 736.5 167.245757426688 L 736.5 167.245757426688 L 737.5 167.6059599891991 L 737.5 167.6059599891991 L 738.5 167.9672578679486 L 738.5 167.9672578679486 L 739.5 168.32963785169588 L 739.5 168.32963785169588 L 740.5 168.6930866896321 L 740.5 168.6930866896321 L 741.5 169.05759109186465 L 741.5 169.05759109186462 L 742.5000000000001 169.42313772990303 L 742.5000000000001 169.42313772990303 L 743.5 169.78971323714626 L 743.5 169.78971323714626 L 744.5 170.15730420937177 L 744.5 170.15730420937177 L 745.5 170.52589720522533 L 745.5 170.52589720522533 L 746.5000000000001 170.8954787467128 L 746.5000000000001 170.89547874671277 L 747.5 171.26603531969255 L 747.5 171.26603531969255 L 748.5 171.63755337437016 L 748.5 171.63755337437016 L 749.5 172.01001932579354 L 749.5 172.0100193257935 L 750.5 172.3834195543496 L 750.5 172.38341955434956 L 751.5 172.75774040626254 L 751.5 172.75774040626254 L 752.5 173.13296819409308 L 752.5 173.13296819409305 L 753.5 173.50908919723875 L 753.5 173.50908919723875 L 754.5 173.8860896624356 L 754.5 173.8860896624356 L 755.5000000000001 174.26395580426149 L 755.5000000000001 174.26395580426146 L 756.5 174.64267380563965 L 756.5 174.64267380563962 L 757.5 175.02222981834427 L 757.5 175.02222981834427 L 758.5 175.40260996350688 L 758.5 175.40260996350688 L 759.5000000000001 175.78380033212343 L 759.5000000000001 175.78380033212343 L 760.5 176.16578698556344 L 760.5 176.16578698556344 L 761.5 176.54855595607938 L 761.5 176.54855595607938 L 762.5 176.93209324731748 L 762.5 176.93209324731745 L 763.5000000000001 177.31638483482934 L 763.5000000000001 177.31638483482934 L 764.5 177.70141666658512 L 764.5 177.70141666658512 L 765.5 178.08717466348708 L 765.5 178.08717466348708 L 766.5 178.4736447198845 L 766.5 178.47364471988448 L 767.5 178.86081270408943 L 767.5 178.8608127040894 L 768.5 179.2486644588935 L 768.5 179.24866445889347 L 769.5 179.63718580208538 L 769.5 179.63718580208538 L 770.5 180.02636252696973 L 770.5 180.02636252696973 L 771.5 180.41618040288654 L 771.5 180.4161804028865 L 772.5000000000001 180.80662517573097 L 772.5000000000001 180.80662517573097 L 773.5 181.19768256847556 L 773.5 181.19768256847556 L 774.5 181.58933828169148 L 774.5 181.58933828169148 L 775.5 181.98157799407178 L 775.5 181.98157799407178 L 776.5000000000001 182.37438736295496 L 776.5000000000001 182.37438736295496 L 777.5 182.76775202484924 L 777.5 182.76775202484924 L 778.5 183.16165759595822 L 778.5 183.16165759595822 L 779.5 183.5560896727065 L 779.5 183.5560896727065 L 780.5000000000001 183.9510338322663 L 780.5000000000001 183.9510338322663 L 781.5 184.34647563308513 L 781.5 184.34647563308513 L 782.5 184.74240061541371 L 782.5 184.74240061541371 L 783.5 185.13879430183468 L 783.5 185.13879430183468 L 784.5 185.53564219779204 L 784.5 185.53564219779201 L 785.5000000000001 185.93292979212117 L 785.5000000000001 185.93292979212117 L 786.5 186.33064255757927 L 786.5 186.33064255757927 L 787.5 186.72876595137683 L 787.5 186.72876595137683 L 788.5 187.12728541570934 L 788.5 187.12728541570934 L 789.5000000000001 187.52618637828934 L 789.5000000000001 187.52618637828934 L 790.5 187.92545425287963 L 790.5 187.92545425287963 L 791.5 188.32507443982652 L 791.5 188.32507443982652 L 792.5 188.72503232659352 L 792.5 188.72503232659352 L 793.5000000000001 189.12531328829596 L 793.5000000000001 189.12531328829596 L 794.5 189.5259026882353 L 794.5 189.5259026882353 L 795.5 189.9267858784349 L 795.5 189.9267858784349 L 796.5000000000001 190.32794820017537 L 796.5000000000001 190.32794820017537 L 797.5000000000001 190.72937498453032 L 797.5000000000001 190.72937498453032 L 798.5000000000001 191.13105155290327 L 798.5000000000001 191.13105155290327 L 799.5 191.53296321756397 L 799.5 191.53296321756397 L 800.5 191.9350952821857 L 800.5 191.9350952821857 L 801.5 192.33743304238257 L 801.5 192.33743304238257 L 802.5000000000001 192.73996178624725 L 802.5000000000001 192.73996178624725 L 803.5 193.1426667948887 L 803.5 193.1426667948887 L 804.5 193.5455333429708 L 804.5 193.5455333429708 L 805.5000000000001 193.94854669925053 L 805.5000000000001 193.94854669925053 L 806.5000000000001 194.35169212711648 L 806.5000000000001 194.35169212711648 L 807.5 194.75495488512814 L 807.5 194.75495488512814 L 808.5 195.15832022755458 L 808.5 195.15832022755458 L 809.5 195.5617734049138 L 809.5 195.5617734049138 L 810.5000000000001 195.96529966451206 L 810.5000000000001 195.96529966451206 L 811.5 196.36888425098311 L 811.5 196.3688842509831 L 812.5 196.7725124068281 L 812.5 196.7725124068281 L 813.5 197.17616937295497 L 813.5 197.17616937295497 L 814.5000000000001 197.57984038921825 L 814.5000000000001 197.57984038921825 L 815.5000000000001 197.9835106949585 L 815.5000000000001 197.9835106949585 L 816.5 198.38716552954247 L 816.5 198.38716552954247 L 817.5 198.79079013290254 L 817.5 198.79079013290254 L 818.5 199.19436974607657 L 818.5 199.19436974607657 L 819.5000000000001 199.59788961174758 L 819.5000000000001 199.59788961174758 L 820.5 200.00133497478305 L 820.5 200.00133497478305 L 821.5 200.40469108277503 L 821.5 200.40469108277503 L 822.5000000000001 200.80794318657922 L 822.5000000000001 200.80794318657922 L 823.5000000000001 201.2110765408542 L 823.5000000000001 201.2110765408542 L 824.5 201.61407640460092 L 824.5 201.61407640460092 L 825.5 202.01692804170145 L 825.5 202.01692804170145 L 826.5 202.41961672145794 L 826.5 202.41961672145794 L 827.4999999999999 202.82212771913132 L 827.4999999999999 202.82212771913132 L 828.5000000000001 203.2244463164796 L 828.5000000000001 203.2244463164796 L 829.5 203.62655780229602 L 829.5 203.62655780229602 L 830.5 204.02844747294722 L 830.5 204.02844747294722 L 831.5000000000001 204.43010063291075 L 831.5000000000001 204.43010063291075 L 832.5000000000001 204.83150259531226 L 832.5000000000001 204.83150259531226 L 833.5 205.23263868246283 L 833.5 205.23263868246283 L 834.5 205.63349422639556 L 834.5 205.63349422639556 L 835.5 206.03405456940186 L 835.5 206.03405456940186 L 836.5000000000001 206.43430506456758 L 836.5000000000001 206.43430506456758 L 837.5 206.8342310763083 L 837.5 206.8342310763083 L 838.5 207.2338179809048 L 838.5 207.23381798090477 L 839.5000000000001 207.6330511670377 L 839.5000000000001 207.6330511670377 L 840.5000000000001 208.03191603632163 L 840.5000000000001 208.03191603632163 L 841.5 208.43039800383914 L 841.5 208.43039800383914 L 842.5 208.82848249867402 L 842.5 208.82848249867402 L 843.5 209.22615496444408 L 843.5 209.22615496444408 L 844.4999999999999 209.62340085983334 L 844.4999999999999 209.62340085983334 L 845.5000000000001 210.02020565912397 L 845.5000000000001 210.02020565912395 L 846.5 210.41655485272702 L 846.5 210.41655485272702 L 847.5 210.8124339477135 L 847.5 210.8124339477135 L 848.5000000000001 211.207828468344 L 848.5000000000001 211.207828468344 L 849.5000000000001 211.60272395659797 L 849.5000000000001 211.60272395659797 L 850.5 211.99710597270268 L 850.5 211.99710597270268 L 851.5 212.39096009566097 L 851.5 212.39096009566097 L 852.5 212.78427192377865 L 852.5 212.78427192377865 L 853.5000000000001 213.1770270751912 L 853.5000000000001 213.1770270751912 L 854.5 213.5692111883894 L 854.5 213.56921118838937 L 855.5 213.96080992274477 L 855.5 213.96080992274477 L 856.5000000000001 214.35180895903392 L 856.5000000000001 214.35180895903392 L 857.5000000000001 214.74219399996178 L 857.5000000000001 214.74219399996178 L 858.5000000000001 215.13195077068494 L 858.5000000000001 215.13195077068494 L 859.5 215.52106501933326 L 859.5 215.52106501933326 L 860.5 215.90952251753106 L 860.5 215.90952251753106 L 861.5 216.2973090609175 L 861.5 216.2973090609175 L 862.5000000000001 216.68441046966598 L 862.5000000000001 216.68441046966598 L 863.5 217.07081258900234 L 863.5 217.07081258900232 L 864.5 217.45650128972287 L 864.5 217.45650128972287 L 865.5000000000001 217.84146246871086 L 865.5000000000001 217.84146246871086 L 866.5000000000001 218.22568204945188 L 866.5000000000001 218.22568204945185 L 867.5 218.60914598254905 L 867.5 218.60914598254905 L 868.5 218.9918402462366 L 868.5 218.9918402462366 L 869.5 219.3737508468924 L 869.5 219.3737508468924 L 870.5000000000001 219.7548638195499 L 870.5000000000001 219.7548638195499 L 871.5000000000001 220.13516522840857 L 871.5000000000001 220.13516522840857 L 872.5 220.5146411673436 L 872.5 220.5146411673436 L 873.5 220.8932777604144 L 873.5 220.8932777604144 L 874.5000000000001 221.27106116237198 L 874.5000000000001 221.27106116237198 L 875.5000000000001 221.64797755916504 L 875.5000000000001 221.64797755916504 L 876.5 222.0240131684454 L 876.5 222.0240131684454 L 877.5 222.39915424007174 L 877.5 222.39915424007174 L 878.5 222.77338705661248 L 878.5 222.77338705661248 L 879.5000000000001 223.1466979338474 L 879.5000000000001 223.1466979338474 L 880.5 223.51907322126783 L 880.5 223.5190732212678 L 881.5 223.89049930257602 L 881.5 223.89049930257602 L 882.5000000000001 224.26096259618305 L 882.5000000000001 224.26096259618302 L 883.5000000000001 224.63044955570513 L 883.5000000000001 224.6304495557051 L 884.5 224.9989466704593 L 884.5 224.9989466704593 L 885.5 225.3664404659574 L 885.5 225.36644046595737 L 886.5 225.73291750439853 L 886.5 225.73291750439853 L 887.4999999999999 226.09836438516072 L 887.4999999999999 226.0983643851607 L 888.5000000000001 226.4627677452908 L 888.5000000000001 226.4627677452908 L 889.5 226.82611425999292 L 889.5 226.8261142599929 L 890.5 227.188390643116 L 890.5 227.188390643116 L 891.5000000000001 227.54958364763957 L 891.5000000000001 227.54958364763954 L 892.5000000000001 227.90968006615776 L 892.5000000000001 227.90968006615773 L 893.5 228.26866673136274 L 893.5 228.26866673136274 L 894.5 228.62653051652603 L 894.5 228.62653051652603 L 895.5 228.9832583359783 L 895.5 228.9832583359783 L 896.5000000000001 229.33883714558812 L 896.5000000000001 229.33883714558812 L 897.5 229.69325394323872 L 897.5 229.69325394323872 L 898.5 230.04649576930365 L 898.5 230.04649576930362 L 899.5000000000001 230.39854970712048 L 899.5000000000001 230.39854970712048 L 900.5000000000001 230.74940288346315 L 900.5000000000001 230.74940288346315 L 901.5000000000001 231.09904246901277 L 901.5000000000001 231.09904246901277 L 902.5 231.44745567882669 L 902.5 231.44745567882669 L 903.5 231.79462977280593 L 903.5 231.79462977280593 L 904.5 232.1405520561612 L 904.5 232.14055205616117 L 905.5000000000001 232.4852098798769 L 905.5000000000001 232.48520987987686 L 906.5 232.82859064117372 L 906.5 232.8285906411737 L 907.5 233.17068178396954 L 907.5 233.17068178396954 L 908.5000000000001 233.51147079933864 L 908.5000000000001 233.51147079933864 L 909.5000000000001 233.8509452259687 L 909.5000000000001 233.85094522596867 L 910.5 234.1890926506169 L 910.5 234.18909265061689 L 911.5 234.5259007085637 L 911.5 234.52590070856368 L 912.5 234.86135708406482 L 912.5 234.8613570840648 L 913.5000000000001 235.19544951080178 L 913.5000000000001 235.19544951080178 L 914.5 235.52816577233017 L 914.5 235.52816577233014 L 915.5 235.85949370252663 L 915.5 235.8594937025266 L 916.5000000000001 236.18942118603374 L 916.5000000000001 236.1894211860337 L 917.5000000000001 236.5179361587026 L 917.5000000000001 236.5179361587026 L 918.5000000000001 236.84502660803454 L 918.5000000000001 236.84502660803454 L 919.5 237.17068057362 L 919.5 237.17068057362 L 920.5 237.49488614757593 L 920.5 237.4948861475759 L 921.5 237.81763147498128 L 921.5 237.81763147498128 L 922.5000000000001 238.1389047543106 L 922.5000000000001 238.13890475431057 L 923.5 238.45869423786516 L 923.5 238.45869423786516 L 924.5 238.77698823220305 L 924.5 238.77698823220302 L 925.5000000000001 239.09377509856645 L 925.5000000000001 239.09377509856643 L 926.5000000000001 239.40904325330715 L 926.5000000000001 239.40904325330712 L 927.5 239.72278116831038 L 927.5 239.72278116831038 L 928.5 240.0349773714162 L 928.5 240.03497737141618 L 929.5 240.34562044683895 L 929.5 240.34562044683892 L 930.5000000000001 240.65469903558477 L 930.5000000000001 240.65469903558477 L 931.5000000000001 240.9622018358669 L 931.5000000000001 240.9622018358669 L 932.5 241.2681176035189 L 932.5 241.26811760351887 L 933.5 241.572435152406 L 933.5 241.57243515240597 L 934.5000000000001 241.8751433548339 L 934.5000000000001 241.87514335483388 L 935.5000000000001 242.17623114195575 L 935.5000000000001 242.17623114195572 L 936.5 242.47568750417696 L 936.5 242.47568750417693 L 937.5 242.77350149155768 L 937.5 242.77350149155765 L 938.5 243.06966221421328 L 938.5 243.06966221421325 L 939.5000000000001 243.36415884271253 L 939.5000000000001 243.36415884271253 L 940.5 243.65698060847345 L 940.5 243.65698060847342 L 941.5 243.9481168041573 L 941.5 243.94811680415728 L 942.5000000000001 244.23755678406005 L 942.5000000000001 244.23755678406002 L 943.5000000000001 244.52528996450138 L 943.5000000000001 244.52528996450138 L 944.5 244.81130582421216 L 944.5 244.81130582421216 L 945.5 245.09559390471875 L 945.5 245.09559390471873 L 946.5 245.3781438107257 L 946.5 245.37814381072567 L 947.5 245.65894521049563 L 947.5 245.65894521049563 L 948.5000000000001 245.93798783622734 L 948.5000000000001 245.9379878362273 L 949.5 246.2152614844308 L 949.5 246.21526148443078 L 950.5000000000001 246.4907560163008 L 950.5000000000001 246.4907560163008 L 951.5000000000001 246.76446135808717 L 951.5000000000001 246.76446135808715 L 952.5000000000001 247.03636750146353 L 952.5000000000001 247.03636750146353 L 953.5 247.30646450389307 L 953.5 247.30646450389304 L 954.5 247.57474248899211 L 954.5 247.5747424889921 L 955.5 247.84119164689125 L 955.5 247.84119164689125 L 956.4999999999999 248.1058022345942 L 956.4999999999999 248.10580223459417 L 957.5 248.36856457633385 L 957.5 248.36856457633382 L 958.5 248.62946906392614 L 958.5 248.62946906392614 L 959.5000000000001 248.88850615712158 L 959.5000000000001 248.88850615712155 L 960.5000000000001 249.14566638395365 L 960.5000000000001 249.14566638395365 L 961.5000000000001 249.40094034108577 L 961.5000000000001 249.40094034108574 L 962.5 249.6543186941546 L 962.5 249.65431869415457 L 963.5 249.90579217811162 L 963.5 249.9057921781116 L 964.5 250.15535159756195 L 964.5 250.15535159756195 L 965.5000000000001 250.4029878271005 L 965.5000000000001 250.40298782710047 L 966.5 250.64869181164542 L 966.5 250.64869181164542 L 967.5000000000001 250.8924545667698 L 967.5000000000001 250.8924545667698 L 968.5000000000001 251.13426717902962 L 968.5000000000001 251.13426717902962 L 969.5000000000001 251.37412080629 L 969.5000000000001 251.37412080629 L 970.5 251.61200667804837 L 970.5 251.61200667804835 L 971.5 251.84791609575527 L 971.5 251.84791609575524 L 972.5 252.08184043313236 L 972.5 252.08184043313236 L 973.4999999999999 252.3137711364879 L 973.4999999999999 252.31377113648787 L 974.5000000000001 252.54369972502948 L 974.5000000000001 252.54369972502946 L 975.5 252.7716177911741 L 975.5 252.77161779117407 L 976.5000000000001 252.99751700085568 L 976.5000000000001 252.99751700085568 L 977.5000000000001 253.2213890938298 L 977.5000000000001 253.22138909382977 L 978.5000000000001 253.44322588397566 L 978.5000000000001 253.44322588397563 L 979.5 253.6630192595955 L 979.5 253.66301925959547 L 980.5 253.88076118371117 L 980.5 253.88076118371117 L 981.5 254.09644369435807 L 981.5 254.09644369435807 L 982.5000000000001 254.3100589048762 L 982.5000000000001 254.31005890487617 L 983.5 254.52159900419852 L 983.5 254.5215990041985 L 984.5000000000001 254.73105625713674 L 984.5000000000001 254.73105625713674 L 985.5000000000001 254.938423004664 L 985.5000000000001 254.938423004664 L 986.5000000000001 255.14369166419502 L 986.5000000000001 255.14369166419502 L 987.5 255.3468547298633 L 987.5 255.3468547298633 L 988.5 255.5479047727957 L 988.5 255.54790477279568 L 989.5 255.74683444138387 L 989.5 255.74683444138387 L 990.4999999999999 255.9436364615533 L 990.4999999999999 255.94363646155327 L 991.5000000000001 256.1383036370292 L 991.5000000000001 256.13830363702914 L 992.5 256.33082884959947 L 992.5 256.33082884959947 L 993.5000000000001 256.5212050593755 L 993.5000000000001 256.52120505937546 L 994.5000000000001 256.7094253050489 L 994.5000000000001 256.7094253050489 L 995.5000000000001 256.8954827041466 L 995.5000000000001 256.8954827041466 L 996.5 257.0793704532823 L 996.5 257.07937045328225 L 997.5 257.2610818284051 L 997.5 257.2610818284051 L 998.5 257.4406101850457 L 998.5 257.4406101850457 L 999.5000000000001 257.6179489585592 L 999.5000000000001 257.6179489585592 L 1000.5 257.793091664365 L 1000.5 257.79309166436497 L 1001.5 257.96603189818404 L 1001.5 257.96603189818404 L 1002.5000000000001 258.1367633362732 L 1002.5000000000001 258.13676333627313 L 1003.5000000000001 258.305279735656 L 1003.5000000000001 258.305279735656 L 1004.5000000000001 258.47157493435145 L 1004.5000000000001 258.47157493435145 L 1005.5 258.6356428515991 L 1005.5 258.6356428515991 L 1006.5 258.7974774880813 L 1006.5 258.79747748808126 L 1007.5 258.9570729261427 L 1007.5 258.9570729261427 L 1008.5000000000001 259.1144233300068 L 1008.5000000000001 259.1144233300068 L 1009.5 259.2695229459889 L 1009.5 259.2695229459889 L 1010.5000000000001 259.422366102707 L 1010.5000000000001 259.4223661027069 L 1011.5000000000001 259.5729472112885 L 1011.5000000000001 259.5729472112885 L 1012.5000000000001 259.7212607655756 L 1012.5000000000001 259.7212607655756 L 1013.5 259.86730134232556 L 1013.5 259.86730134232556 L 1014.5 260.01106360140966 L 1014.5 260.01106360140966 L 1015.5 260.15254228600827 L 1015.5 260.15254228600827 L 1016.4999999999999 260.2917322228031 L 1016.4999999999999 260.2917322228031 L 1017.5 260.4286283221663 L 1017.5 260.4286283221663 L 1018.5 260.56322557834665 L 1018.5 260.56322557834665 L 1019.5000000000001 260.69551906965256 L 1019.5000000000001 260.6955190696525 L 1020.5000000000001 260.82550395863205 L 1020.5000000000001 260.82550395863205 L 1021.5000000000001 260.95317549224967 L 1021.5000000000001 260.95317549224967 L 1022.5 261.07852900206024 L 1022.5 261.07852900206024 L 1023.5 261.20155990437956 L 1023.5 261.20155990437956 L 1024.5 261.3222637004521 L 1024.5 261.322263700452 L 1025.5000000000002 261.44063597661534 L 1025.5000000000002 261.44063597661534 L 1026.5 261.5566724044613 L 1026.5 261.5566724044613 L 1027.5000000000002 261.67036874099495 L 1027.5000000000002 261.67036874099495 L 1028.5000000000002 261.78172082878893 L 1028.5000000000002 261.7817208287889 L 1029.5000000000002 261.89072459613584 L 1029.5000000000002 261.89072459613584 L 1030.5 261.99737605719736 L 1030.5 261.9973760571973 L 1031.5 262.1016713121494 L 1031.5 262.1016713121494 L 1032.5 262.20360654732536 L 1032.5 262.20360654732536 L 1033.5 262.30317803535513 L 1033.5 262.30317803535513 L 1034.5000000000002 262.40038213530147 L 1034.5000000000002 262.40038213530147 L 1035.5 262.4952152927933 L 1035.5 262.49521529279326 L 1036.5000000000002 262.58767404015555 L 1036.5000000000002 262.5876740401555 L 1037.5000000000002 262.6777549965359 L 1037.5000000000002 262.67775499653584 L 1038.5000000000002 262.7654548680285 L 1038.5000000000002 262.7654548680285 L 1039.5 262.85077044779456 L 1039.5 262.8507704477945 L 1040.5 262.93369861617924 L 1040.5 262.9336986161792 L 1041.5 263.014236340826 L 1041.5 263.014236340826 L 1042.5000000000002 263.0923806767875 L 1042.5000000000002 263.0923806767875 L 1043.5 263.1681287666331 L 1043.5 263.16812876663306 L 1044.5000000000002 263.24147784055344 L 1044.5000000000002 263.24147784055344 L 1045.5000000000002 263.31242521646175 L 1045.5000000000002 263.31242521646175 L 1046.5000000000002 263.380968300092 L 1046.5000000000002 263.380968300092 L 1047.5000000000002 263.44710458509337 L 1047.5000000000002 263.44710458509337 L 1048.5 263.5108316531226 L 1048.5 263.5108316531226 L 1049.5 263.5721471739316 L 1049.5 263.5721471739316 L 1050.5 263.6310489054534 L 1050.5 263.6310489054534 L 1051.5000000000002 263.68753469388355 L 1051.5000000000002 263.68753469388355 L 1052.5 263.74160247375926 L 1052.5 263.74160247375926 L 1053.5000000000002 263.79325026803474 L 1053.5000000000002 263.79325026803474 L 1054.5000000000002 263.84247618815357 L 1054.5000000000002 263.8424761881535 L 1055.5000000000002 263.88927843411767 L 1055.5000000000002 263.88927843411767 L 1056.5 263.93365529455326 L 1056.5 263.93365529455326 L 1057.5 263.9756051467734 L 1057.5 263.9756051467734 L 1058.5 264.01512645683704 L 1058.5 264.01512645683704 L 1059.5000000000002 264.05221777960566 L 1059.5000000000002 264.05221777960566 L 1060.5 264.0868777587956 L 1060.5 264.0868777587956 L 1061.5 264.11910512702786 L 1061.5 264.11910512702786 L 1062.5000000000002 264.14889870587467 L 1062.5000000000002 264.14889870587467 L 1063.5000000000002 264.176257405902 L 1063.5000000000002 264.176257405902 L 1064.5000000000002 264.2011802267101 L 1064.5000000000002 264.20118022671005 L 1065.5 264.2236662569694 L 1065.5 264.2236662569694 L 1066.5 264.2437146744545 L 1066.5 264.24371467445445 L 1067.5 264.26132474607357 L 1067.5 264.26132474607357 L 1068.5000000000002 264.27649582789576 L 1068.5000000000002 264.27649582789576 L 1069.5 264.2892273651743 L 1069.5 264.28922736517427 L 1070.5000000000002 264.299518892367 L 1070.5000000000002 264.299518892367 L 1071.5000000000002 264.30737003315335 L 1071.5000000000002 264.30737003315335 L 1072.5000000000002 264.3127805004479 L 1072.5000000000002 264.3127805004479 L 1073.5 264.31575009641125 L 1073.5 264.31575009641125 L 1074.5 264.3163767679788 L 1074.5 264.316278712457 L 1075.5 264.3143663292556 L 1075.5 264.3143663292556 L 1076.5 264.3100130167355 L 1076.5 264.3100130167356 L 1077.5000000000002 264.3032189340803 L 1077.5000000000002 264.3032189340803 L 1078.5 264.29398432972255 L 1078.5 264.29398432972255 L 1079.5000000000002 264.2823095413356 L 1079.5000000000002 264.2823095413356 L 1080.5000000000002 264.2681949958204 L 1080.5000000000002 264.2681949958204 L 1081.5000000000002 264.2516412092903 L 1081.5000000000002 264.2516412092903 L 1082.5 264.2326487870521 L 1082.5 264.2326487870521 L 1083.5 264.21121842358383 L 1083.5 264.2112184235839 L 1084.5 264.1873509025096 L 1084.5 264.1873509025096 L 1085.5000000000002 264.1610470965705 L 1085.5000000000002 264.1610470965705 L 1086.5 264.1323079675932 L 1086.5 264.1323079675932 L 1087.5000000000002 264.1011345664545 L 1087.5000000000002 264.1011345664545 L 1088.5000000000002 264.06752803304283 L 1088.5000000000002 264.0675280330429 L 1089.5 264.0314895962169 L 1089.5 264.0314895962169 L 1090.5 263.99302057376025 L 1090.5 263.99302057376025 L 1091.5 263.95212237233363 L 1091.5 263.95212237233363 L 1092.5 263.90879648742316 L 1092.5 263.90879648742316 L 1093.5 263.8630445032859 L 1093.5 263.8630445032859 L 1094.5 263.8148680928916 L 1094.5 263.81486809289163 L 1095.5 263.7642690178619 L 1095.5 263.764269017862 L 1096.5000000000002 263.7112491284058 L 1096.5000000000002 263.7112491284058 L 1097.5000000000002 263.65581036325176 L 1097.5000000000002 263.65581036325176 L 1098.5 263.59795474957707 L 1098.5 263.59795474957707 L 1099.5 263.53768440293373 L 1099.5 263.5376844029338 L 1100.5 263.475001527171 L 1100.5 263.475001527171 L 1101.5 263.4099084143546 L 1101.5 263.4099084143546 L 1102.5 263.3424074446835 L 1102.5 263.34240744468354 L 1103.5 263.27250108640226 L 1103.5 263.27250108640226 L 1104.5000000000002 263.20019189571104 L 1104.5000000000002 263.20019189571104 L 1105.5000000000002 263.12548251667226 L 1105.5000000000002 263.12548251667226 L 1106.5 263.0483756811136 L 1106.5 263.0483756811136 L 1107.5 262.96887420852846 L 1107.5 262.9688742085285 L 1108.5 262.88698100597253 L 1108.5 262.88698100597253 L 1109.5 262.80269906795775 L 1109.5 262.8026990679578 L 1110.5 262.71603147634266 L 1110.5 262.71603147634266 L 1111.5 262.62698140021973 L 1111.5 262.62698140021973 L 1112.5 262.5355520957996 L 1112.5 262.53555209579963 L 1113.5000000000002 262.44174690629177 L 1113.5000000000002 262.44174690629177 L 1114.5000000000002 262.3455692617827 L 1114.5000000000002 262.3455692617827 L 1115.5 262.24702267911005 L 1115.5 262.24702267911005 L 1116.5 262.1461107617342 L 1116.5 262.1461107617342 L 1117.5 262.04283719960654 L 1117.5 262.04283719960654 L 1118.5 261.93720576903456 L 1118.5 261.93720576903456 L 1119.5 261.8292203325437 L 1119.5 261.8292203325437 L 1120.5 261.718884838736 L 1120.5 261.718884838736 L 1121.5 261.6062033221461 L 1121.5 261.6062033221461 L 1122.5000000000002 261.4911799030931 L 1122.5000000000002 261.4911799030931 L 1123.5 261.3738187875306 L 1123.5 261.3738187875306 L 1124.5 261.2541242668923 L 1124.5 261.25412426689235 L 1125.5 261.1321007179355 L 1125.5 261.1321007179355 L 1126.5 261.00775260258075 L 1126.5 261.0077526025808 L 1127.5 260.881084467749 L 1127.5 260.881084467749 L 1128.5 260.752100945195 L 1128.5 260.752100945195 L 1129.5 260.6208067513383 L 1129.5 260.6208067513383 L 1130.5000000000002 260.4872066870904 L 1130.5000000000002 260.4872066870904 L 1131.5000000000002 260.3513056376795 L 1131.5000000000002 260.35130563767956 L 1132.5 260.21310857247187 L 1132.5 260.2131085724719 L 1133.5 260.07262054478986 L 1133.5 260.07262054478986 L 1134.5 259.92984669172733 L 1134.5 259.92984669172733 L 1135.5 259.78479223396187 L 1135.5 259.7847922339619 L 1136.5 259.6374624755637 L 1136.5 259.6374624755637 L 1137.5 259.4878628038019 L 1137.5 259.4878628038019 L 1138.5 259.33599868894726 L 1138.5 259.33599868894726 L 1139.5000000000002 259.18187568407234 L 1139.5000000000002 259.18187568407234 L 1140.5 259.02549942484853 L 1140.5 259.0254994248486 L 1141.5 258.8668756293398 L 1141.5 258.8668756293398 L 1142.5 258.70601009779364 L 1142.5 258.70601009779364 L 1143.5 258.5429087124289 L 1143.5 258.5429087124289 L 1144.5 258.377577437221 L 1144.5 258.377577437221 L 1145.5 258.2100223176835 L 1145.5 258.2100223176836 L 1146.5 258.0402494806474 L 1146.5 258.0402494806474 L 1147.5000000000002 257.86826513403656 L 1147.5000000000002 257.86826513403656 L 1148.5000000000002 257.6940755666413 L 1148.5000000000002 257.6940755666413 L 1149.5 257.51768714788807 L 1149.5 257.51768714788807 L 1150.5 257.33910632760666 L 1150.5 257.3391063276067 L 1151.5 257.15833963579445 L 1151.5 257.15833963579445 L 1152.5 256.9753936823774 L 1152.5 256.9753936823774 L 1153.5 256.7902751569685 L 1153.5 256.79027515696856 L 1154.5 256.6029908286232 L 1154.5 256.6029908286232 L 1155.5 256.4135475455919 L 1155.5 256.41354754559194 L 1156.5000000000002 256.2219522350693 L 1156.5000000000002 256.2219522350693 L 1157.5000000000002 256.0282119029414" stroke-opacity="0.8" stroke-linecap="round" stroke-linejoin="round" stroke-miterlimit="10" stroke-width="2.5"/><text fill="rgb(0,103,88)" stroke="none" font-family="geogebra-sans-serif, sans-serif" font-size="16px" font-style="normal" font-weight="normal" text-decoration="normal" x="24" y="264" text-anchor="start" dominant-baseline="alphabetic" fill-opacity="1">f</text></g></g></svg>